<svg width="265" height="50" viewBox="0 0 265 50" fill="none" xmlns="http://www.w3.org/2000/svg">
<g clip-path="url(#clip0_672_240)">
<path d="M97.8287 31.0807C97.7588 30.8372 97.6894 30.6285 97.6199 30.4546C97.5501 30.2719 97.4764 30.111 97.3982 29.9719C97.3283 29.824 97.2459 29.6936 97.1501 29.5805C97.063 29.4675 96.9588 29.35 96.8371 29.2283C96.5413 28.9239 96.202 28.6978 95.8195 28.5499C95.4455 28.3933 95.0455 28.3151 94.6191 28.3151C94.0802 28.3151 93.5886 28.4194 93.1451 28.6282C92.7104 28.8369 92.3363 29.137 92.0233 29.5283C91.7188 29.911 91.484 30.3763 91.3188 30.9242C91.1535 31.4721 91.0707 32.0809 91.0707 32.7506C91.0707 33.6203 91.1882 34.3813 91.423 35.0336C91.6581 35.6859 91.9928 36.1947 92.4275 36.5599C93.0798 37.0818 93.8585 37.3427 94.7627 37.3427C95.3802 37.3427 95.9501 37.2253 96.4718 36.9904C96.9936 36.7556 97.5329 36.373 98.0894 35.8424L98.3504 36.1033C97.8982 36.7034 97.3199 37.1688 96.6153 37.4992C95.9195 37.8297 95.1455 37.995 94.2932 37.995C93.5539 37.995 92.8798 37.8732 92.2711 37.6297C91.6623 37.3862 91.1405 37.047 90.7054 36.6121C90.2707 36.1686 89.9314 35.638 89.6878 35.0205C89.4531 34.4031 89.3359 33.716 89.3359 32.9593C89.3359 32.0983 89.4836 31.3243 89.7794 30.6372C90.0749 29.9414 90.51 29.3587 91.084 28.8891C91.5363 28.5238 92.0451 28.2412 92.6104 28.0411C93.1756 27.8324 93.7451 27.728 94.3191 27.728C95.0585 27.728 95.789 27.8498 96.5107 28.0933C96.7543 28.1803 96.9501 28.2238 97.0978 28.2238C97.2459 28.2238 97.3718 28.1803 97.4764 28.0933C97.5894 28.0063 97.6676 27.8846 97.7111 27.728H98.0241L98.1676 31.0807H97.8287ZM109.467 37.7862H105.671V37.5123C105.801 37.5123 105.91 37.5123 105.997 37.5123C106.084 37.5036 106.153 37.4949 106.205 37.4862C106.266 37.4688 106.318 37.4557 106.362 37.447C106.405 37.4297 106.449 37.4079 106.492 37.3818C106.562 37.3383 106.614 37.2862 106.649 37.2253C106.692 37.1557 106.714 37.0861 106.714 37.0165C106.714 36.773 106.618 36.4338 106.427 35.999L105.801 34.577H101.913L101.222 36.3121C101.187 36.4077 101.157 36.5078 101.131 36.6121C101.113 36.7078 101.105 36.8034 101.105 36.8991C101.105 37.0992 101.183 37.2513 101.339 37.3557C101.496 37.4601 101.757 37.5123 102.122 37.5123V37.7862H99.1607V37.5123C99.3432 37.5036 99.5001 37.4731 99.6302 37.421C99.7607 37.3688 99.8913 37.2601 100.022 37.0948C100.152 36.9209 100.291 36.6773 100.439 36.3642C100.596 36.0425 100.791 35.6076 101.026 35.0597L104.118 27.7541H104.405L108.123 36.2077C108.245 36.486 108.349 36.7078 108.436 36.873C108.532 37.0383 108.628 37.1688 108.723 37.2644C108.819 37.3514 108.923 37.4123 109.036 37.447C109.158 37.4818 109.302 37.5036 109.467 37.5123V37.7862ZM105.605 33.9769L103.883 29.8675L102.161 33.9769H105.605ZM112.652 36.1816C112.652 36.4512 112.669 36.673 112.704 36.847C112.739 37.0122 112.804 37.1426 112.899 37.2383C113.004 37.334 113.147 37.4036 113.33 37.447C113.513 37.4818 113.752 37.5036 114.047 37.5123V37.7862H109.873V37.5123C110.16 37.4862 110.382 37.4514 110.538 37.4079C110.703 37.3644 110.829 37.2905 110.916 37.1861C111.003 37.0818 111.056 36.9383 111.073 36.7556C111.099 36.5643 111.112 36.3121 111.112 35.999V29.5544C111.112 29.2848 111.099 29.0717 111.073 28.9152C111.047 28.7499 110.991 28.6238 110.903 28.5368C110.816 28.4412 110.691 28.3716 110.525 28.3281C110.36 28.2846 110.142 28.2498 109.873 28.2238V27.9237H113.8C114.539 27.9237 115.204 28.0281 115.795 28.2368C116.395 28.4455 116.848 28.7195 117.152 29.0587C117.526 29.5022 117.713 30.0241 117.713 30.6242C117.713 31.1199 117.583 31.5809 117.322 32.007C117.07 32.4244 116.722 32.7549 116.278 32.9985C115.957 33.1724 115.587 33.2985 115.17 33.3768C114.761 33.4551 114.26 33.4942 113.669 33.4942C113.478 33.4942 113.308 33.4942 113.16 33.4942C113.021 33.4855 112.852 33.4768 112.652 33.4681V36.1816ZM112.652 32.855C112.826 32.8724 112.969 32.8854 113.082 32.8941C113.204 32.9028 113.339 32.9071 113.486 32.9071C115.217 32.9071 116.082 32.1766 116.082 30.7155C116.082 29.9414 115.844 29.3761 115.365 29.0195C114.895 28.663 114.152 28.4847 113.134 28.4847C112.934 28.4847 112.804 28.5194 112.743 28.589C112.682 28.6499 112.652 28.7847 112.652 28.9934V32.855ZM119.698 29.5544C119.698 29.2761 119.68 29.0543 119.645 28.8891C119.62 28.7238 119.554 28.5934 119.45 28.4977C119.345 28.402 119.198 28.3368 119.006 28.302C118.815 28.2672 118.563 28.2412 118.25 28.2238V27.9237H122.672V28.2238C122.359 28.2325 122.107 28.2585 121.916 28.302C121.724 28.3368 121.576 28.402 121.472 28.4977C121.368 28.5934 121.298 28.7282 121.263 28.9021C121.228 29.0674 121.211 29.2848 121.211 29.5544V36.1816C121.211 36.4512 121.228 36.673 121.263 36.847C121.307 37.0122 121.381 37.1426 121.485 37.2383C121.589 37.334 121.737 37.4036 121.929 37.447C122.12 37.4818 122.368 37.5036 122.672 37.5123V37.7862H118.25V37.5123C118.563 37.5036 118.815 37.4818 119.006 37.447C119.198 37.4036 119.341 37.334 119.437 37.2383C119.541 37.1426 119.611 37.0122 119.645 36.847C119.68 36.6817 119.698 36.4599 119.698 36.1816V29.5544ZM126 28.5499C125.583 28.5499 125.239 28.5716 124.97 28.6151C124.709 28.6586 124.491 28.7499 124.318 28.8891C124.152 29.0282 124.018 29.2239 123.913 29.4761C123.817 29.7197 123.726 30.0458 123.639 30.4546H123.274L123.365 27.9237H131.766L131.858 30.4546H131.493C131.406 30.0458 131.31 29.7197 131.206 29.4761C131.11 29.2239 130.979 29.0282 130.814 28.8891C130.649 28.7499 130.432 28.6586 130.162 28.6151C129.892 28.5716 129.544 28.5499 129.118 28.5499H128.323V36.1816C128.323 36.4512 128.34 36.6686 128.375 36.8339C128.41 36.9991 128.475 37.1296 128.57 37.2253C128.675 37.3209 128.818 37.3905 129.001 37.434C129.192 37.4688 129.44 37.4949 129.744 37.5123V37.7862H125.413V37.5123C125.718 37.4949 125.961 37.4688 126.144 37.434C126.326 37.3905 126.466 37.3166 126.562 37.2122C126.666 37.0992 126.731 36.947 126.757 36.7556C126.792 36.5643 126.809 36.3121 126.809 35.999V28.5499H126ZM142.726 37.7862H138.93V37.5123C139.061 37.5123 139.17 37.5123 139.257 37.5123C139.343 37.5036 139.413 37.4949 139.465 37.4862C139.526 37.4688 139.578 37.4557 139.622 37.447C139.665 37.4297 139.708 37.4079 139.752 37.3818C139.822 37.3383 139.874 37.2862 139.909 37.2253C139.952 37.1557 139.974 37.0861 139.974 37.0165C139.974 36.773 139.878 36.4338 139.687 35.999L139.061 34.577H135.173L134.482 36.3121C134.447 36.4077 134.416 36.5078 134.391 36.6121C134.373 36.7078 134.364 36.8034 134.364 36.8991C134.364 37.0992 134.442 37.2513 134.599 37.3557C134.756 37.4601 135.016 37.5123 135.382 37.5123V37.7862H132.42V37.5123C132.603 37.5036 132.76 37.4731 132.89 37.421C133.021 37.3688 133.151 37.2601 133.281 37.0948C133.412 36.9209 133.551 36.6773 133.699 36.3642C133.855 36.0425 134.051 35.6076 134.286 35.0597L137.378 27.7541H137.665L141.383 36.2077C141.505 36.486 141.609 36.7078 141.696 36.873C141.792 37.0383 141.887 37.1688 141.983 37.2644C142.079 37.3514 142.183 37.4123 142.296 37.447C142.418 37.4818 142.561 37.5036 142.726 37.5123V37.7862ZM138.865 33.9769L137.143 29.8675L135.421 33.9769H138.865ZM151.808 35.2032L151.077 37.7862H143.08V37.5123C143.35 37.4949 143.567 37.4644 143.733 37.421C143.907 37.3775 144.037 37.3079 144.124 37.2122C144.22 37.1165 144.285 36.9861 144.32 36.8209C144.355 36.6556 144.372 36.4425 144.372 36.1816V29.5544C144.372 29.2935 144.355 29.0804 144.32 28.9152C144.294 28.7499 144.233 28.6195 144.137 28.5238C144.041 28.4281 143.907 28.3586 143.733 28.3151C143.567 28.2716 143.35 28.2412 143.08 28.2238V27.9237H147.268V28.2238C146.972 28.2412 146.733 28.2716 146.55 28.3151C146.368 28.3499 146.229 28.4194 146.133 28.5238C146.037 28.6195 145.972 28.7499 145.937 28.9152C145.903 29.0804 145.885 29.2935 145.885 29.5544V36.5991C145.885 36.7295 145.898 36.8383 145.924 36.9252C145.959 37.0035 146.024 37.0644 146.12 37.1079C146.216 37.1513 146.346 37.1818 146.512 37.1992C146.677 37.2079 146.899 37.2122 147.177 37.2122H148.168C148.803 37.2122 149.329 37.1383 149.747 36.9904C150.173 36.8426 150.521 36.6165 150.791 36.3121C150.895 36.1903 150.995 36.0381 151.091 35.8555C151.195 35.6728 151.308 35.4554 151.429 35.2032H151.808ZM162.274 37.7862H162.052L158.308 29.6066V35.5946C158.308 35.9772 158.325 36.2903 158.36 36.5339C158.404 36.7687 158.478 36.9557 158.582 37.0948C158.686 37.234 158.829 37.334 159.012 37.3949C159.195 37.4557 159.43 37.4949 159.717 37.5123V37.7862H156.22V37.5123C156.525 37.4862 156.768 37.447 156.951 37.3949C157.142 37.334 157.286 37.234 157.381 37.0948C157.486 36.9557 157.555 36.7687 157.59 36.5339C157.625 36.2903 157.642 35.9772 157.642 35.5946V29.5544C157.642 29.2848 157.625 29.0674 157.59 28.9021C157.564 28.7369 157.499 28.6064 157.395 28.5107C157.299 28.4151 157.16 28.3499 156.977 28.3151C156.794 28.2716 156.551 28.2412 156.247 28.2238V27.9237H159.195L162.626 35.451L165.939 27.9237H168.888V28.2238C168.61 28.2412 168.388 28.2716 168.223 28.3151C168.057 28.3586 167.927 28.4281 167.831 28.5238C167.736 28.6195 167.67 28.7499 167.636 28.9152C167.609 29.0804 167.596 29.2935 167.596 29.5544V36.1816C167.596 36.4425 167.614 36.6556 167.649 36.8209C167.683 36.9861 167.744 37.1165 167.831 37.2122C167.927 37.3079 168.057 37.3775 168.223 37.421C168.396 37.4644 168.618 37.4949 168.888 37.5123V37.7862H164.713V37.5123C165.009 37.4949 165.244 37.4644 165.418 37.421C165.6 37.3775 165.739 37.3036 165.835 37.1992C165.931 37.0861 165.992 36.9383 166.018 36.7556C166.053 36.5643 166.07 36.3121 166.07 35.999V29.2544L162.274 37.7862ZM179.9 37.7862H176.103V37.5123C176.234 37.5123 176.343 37.5123 176.43 37.5123C176.517 37.5036 176.586 37.4949 176.639 37.4862C176.699 37.4688 176.752 37.4557 176.795 37.447C176.839 37.4297 176.882 37.4079 176.926 37.3818C176.995 37.3383 177.047 37.2862 177.082 37.2253C177.126 37.1557 177.147 37.0861 177.147 37.0165C177.147 36.773 177.052 36.4338 176.86 35.999L176.234 34.577H172.347L171.655 36.3121C171.62 36.4077 171.59 36.5078 171.564 36.6121C171.546 36.7078 171.538 36.8034 171.538 36.8991C171.538 37.0992 171.616 37.2513 171.773 37.3557C171.929 37.4601 172.19 37.5123 172.555 37.5123V37.7862H169.594V37.5123C169.776 37.5036 169.933 37.4731 170.063 37.421C170.194 37.3688 170.324 37.2601 170.455 37.0948C170.585 36.9209 170.724 36.6773 170.872 36.3642C171.029 36.0425 171.224 35.6076 171.459 35.0597L174.551 27.7541H174.838L178.556 36.2077C178.678 36.486 178.783 36.7078 178.869 36.873C178.965 37.0383 179.061 37.1688 179.156 37.2644C179.252 37.3514 179.357 37.4123 179.47 37.447C179.591 37.4818 179.735 37.5036 179.9 37.5123V37.7862ZM176.039 33.9769L174.316 29.8675L172.594 33.9769H176.039ZM188.929 37.9558L182.341 29.7631V35.5946C182.341 35.9772 182.358 36.2903 182.393 36.5339C182.437 36.7687 182.511 36.9557 182.615 37.0948C182.72 37.234 182.863 37.334 183.045 37.3949C183.228 37.4557 183.463 37.4949 183.75 37.5123V37.7862H180.254V37.5123C180.558 37.4862 180.802 37.447 180.984 37.3949C181.176 37.334 181.319 37.234 181.415 37.0948C181.519 36.9557 181.589 36.7687 181.624 36.5339C181.658 36.2903 181.676 35.9772 181.676 35.5946V29.0456C181.528 28.8717 181.402 28.7325 181.297 28.6282C181.193 28.5151 181.089 28.4325 180.984 28.3803C180.88 28.3194 180.771 28.2803 180.658 28.2629C180.545 28.2368 180.41 28.2238 180.254 28.2238V27.9237H182.798L188.525 35.138V30.1154C188.525 29.2109 188.381 28.6542 188.094 28.4455C187.981 28.376 187.855 28.3281 187.716 28.302C187.586 28.2672 187.381 28.2412 187.103 28.2238V27.9237H190.586V28.2238C190.308 28.2412 190.099 28.2716 189.96 28.3151C189.829 28.3586 189.716 28.4151 189.621 28.4847C189.325 28.676 189.177 29.2196 189.177 30.1154V37.9558H188.929ZM201.428 37.7862H197.632V37.5123C197.763 37.5123 197.871 37.5123 197.958 37.5123C198.045 37.5036 198.115 37.4949 198.167 37.4862C198.228 37.4688 198.28 37.4557 198.324 37.447C198.367 37.4297 198.41 37.4079 198.454 37.3818C198.524 37.3383 198.576 37.2862 198.611 37.2253C198.654 37.1557 198.676 37.0861 198.676 37.0165C198.676 36.773 198.58 36.4338 198.389 35.999L197.763 34.577H193.875L193.184 36.3121C193.149 36.4077 193.118 36.5078 193.092 36.6121C193.075 36.7078 193.066 36.8034 193.066 36.8991C193.066 37.0992 193.144 37.2513 193.301 37.3557C193.458 37.4601 193.718 37.5123 194.084 37.5123V37.7862H191.122V37.5123C191.305 37.5036 191.462 37.4731 191.592 37.421C191.723 37.3688 191.853 37.2601 191.983 37.0948C192.114 36.9209 192.253 36.6773 192.401 36.3642C192.557 36.0425 192.753 35.6076 192.988 35.0597L196.08 27.7541H196.367L200.085 36.2077C200.207 36.486 200.311 36.7078 200.398 36.873C200.494 37.0383 200.589 37.1688 200.685 37.2644C200.781 37.3514 200.885 37.4123 200.998 37.447C201.12 37.4818 201.263 37.5036 201.428 37.5123V37.7862ZM197.567 33.9769L195.845 29.8675L194.123 33.9769H197.567ZM212.153 32.7897C211.936 32.8072 211.758 32.8376 211.619 32.881C211.488 32.9159 211.384 32.9767 211.306 33.0637C211.236 33.142 211.188 33.2551 211.162 33.4029C211.136 33.542 211.123 33.7203 211.123 33.9378V36.9513C210.975 37.0818 210.758 37.2122 210.471 37.3427C210.184 37.4644 209.862 37.5775 209.505 37.6819C209.157 37.7775 208.797 37.8515 208.423 37.9036C208.057 37.9645 207.714 37.995 207.392 37.995C206.566 37.995 205.8 37.8602 205.096 37.5905C204.4 37.3209 203.804 36.9252 203.308 36.4034C202.891 35.9598 202.583 35.4554 202.383 34.8901C202.183 34.3248 202.082 33.6812 202.082 32.9593C202.082 32.194 202.208 31.4939 202.461 30.859C202.713 30.2154 203.061 29.6631 203.504 29.2022C203.957 28.7412 204.491 28.3803 205.109 28.1194C205.735 27.8585 206.422 27.728 207.17 27.728C207.849 27.728 208.527 27.8411 209.205 28.0672C209.492 28.1716 209.714 28.2238 209.871 28.2238C210.027 28.2238 210.166 28.1759 210.288 28.0802C210.41 27.9846 210.492 27.8671 210.536 27.728H210.849L210.979 30.872H210.64C210.545 30.6459 210.458 30.4502 210.379 30.285C210.301 30.111 210.218 29.9588 210.131 29.8284C210.053 29.6892 209.971 29.5675 209.884 29.4631C209.797 29.35 209.697 29.2413 209.584 29.137C208.992 28.589 208.274 28.3151 207.431 28.3151C206.892 28.3151 206.392 28.4194 205.931 28.6282C205.479 28.8369 205.092 29.137 204.77 29.5283C204.465 29.9023 204.222 30.398 204.039 31.0155C203.857 31.6243 203.765 32.2636 203.765 32.9333C203.765 33.629 203.857 34.2552 204.039 34.8118C204.222 35.3597 204.483 35.8251 204.822 36.2077C205.161 36.5904 205.57 36.8861 206.048 37.0948C206.535 37.3036 207.083 37.4079 207.692 37.4079C207.962 37.4079 208.214 37.3862 208.449 37.3427C208.692 37.2905 208.905 37.2253 209.088 37.147C209.27 37.0687 209.414 36.9774 209.518 36.873C209.623 36.76 209.675 36.6426 209.675 36.5208V34.1073C209.675 33.8377 209.662 33.6203 209.636 33.455C209.61 33.2898 209.549 33.1637 209.453 33.0767C209.366 32.9811 209.236 32.9159 209.062 32.881C208.888 32.8376 208.653 32.8072 208.357 32.7897V32.5158H212.153V32.7897ZM220.635 37.7862H212.599V37.5123C212.868 37.4949 213.086 37.4644 213.251 37.421C213.425 37.3775 213.555 37.3079 213.642 37.2122C213.738 37.1165 213.803 36.9861 213.838 36.8209C213.873 36.6556 213.89 36.4425 213.89 36.1816V29.5544C213.89 29.2935 213.873 29.0804 213.838 28.9152C213.812 28.7499 213.751 28.6195 213.655 28.5238C213.56 28.4281 213.425 28.3586 213.251 28.3151C213.086 28.2716 212.868 28.2412 212.599 28.2238V27.9237H220.504L220.531 30.0632H220.178C220.108 29.724 220.03 29.4544 219.944 29.2544C219.857 29.0456 219.73 28.8847 219.565 28.7717C219.408 28.6586 219.195 28.5847 218.926 28.5499C218.665 28.5151 218.326 28.4977 217.908 28.4977H215.899C215.699 28.4977 215.565 28.5281 215.495 28.589C215.434 28.6499 215.403 28.7891 215.403 29.0065V32.307H217.686C217.991 32.307 218.239 32.2897 218.43 32.2549C218.621 32.2201 218.774 32.1549 218.887 32.0592C219.008 31.9548 219.1 31.8113 219.161 31.6287C219.221 31.446 219.278 31.2025 219.33 30.8981H219.682V34.3552H219.33C219.278 34.0421 219.221 33.7942 219.161 33.6116C219.1 33.4203 219.013 33.2768 218.9 33.1811C218.787 33.0767 218.634 33.0072 218.443 32.9724C218.252 32.9376 218 32.9202 217.686 32.9202H215.403V36.5991C215.403 36.7469 215.412 36.8556 215.429 36.9252C215.447 36.9948 215.478 37.047 215.521 37.0818C215.591 37.1252 215.756 37.1644 216.016 37.1992C216.286 37.2253 216.604 37.2383 216.969 37.2383H217.386C217.917 37.2383 218.36 37.2122 218.717 37.16C219.083 37.1079 219.391 37.0078 219.643 36.86C219.904 36.7121 220.13 36.5121 220.322 36.2599C220.513 36.0077 220.7 35.6772 220.882 35.2684H221.313L220.635 37.7862ZM227.812 37.7862H227.59L223.845 29.6066V35.5946C223.845 35.9772 223.863 36.2903 223.898 36.5339C223.941 36.7687 224.015 36.9557 224.12 37.0948C224.224 37.234 224.368 37.334 224.55 37.3949C224.733 37.4557 224.968 37.4949 225.255 37.5123V37.7862H221.758V37.5123C222.063 37.4862 222.306 37.447 222.489 37.3949C222.68 37.334 222.824 37.234 222.92 37.0948C223.024 36.9557 223.093 36.7687 223.128 36.5339C223.163 36.2903 223.18 35.9772 223.18 35.5946V29.5544C223.18 29.2848 223.163 29.0674 223.128 28.9021C223.102 28.7369 223.037 28.6064 222.933 28.5107C222.837 28.4151 222.698 28.3499 222.515 28.3151C222.333 28.2716 222.089 28.2412 221.784 28.2238V27.9237H224.733L228.164 35.451L231.478 27.9237H234.426V28.2238C234.147 28.2412 233.926 28.2716 233.76 28.3151C233.595 28.3586 233.465 28.4281 233.369 28.5238C233.273 28.6195 233.208 28.7499 233.173 28.9152C233.147 29.0804 233.134 29.2935 233.134 29.5544V36.1816C233.134 36.4425 233.152 36.6556 233.186 36.8209C233.221 36.9861 233.282 37.1165 233.369 37.2122C233.465 37.3079 233.595 37.3775 233.76 37.421C233.934 37.4644 234.156 37.4949 234.426 37.5123V37.7862H230.251V37.5123C230.547 37.4949 230.782 37.4644 230.955 37.421C231.138 37.3775 231.277 37.3036 231.373 37.1992C231.469 37.0861 231.529 36.9383 231.556 36.7556C231.591 36.5643 231.608 36.3121 231.608 35.999V29.2544L227.812 37.7862ZM243.116 37.7862H235.079V37.5123C235.349 37.4949 235.566 37.4644 235.732 37.421C235.906 37.3775 236.036 37.3079 236.123 37.2122C236.219 37.1165 236.284 36.9861 236.319 36.8209C236.354 36.6556 236.371 36.4425 236.371 36.1816V29.5544C236.371 29.2935 236.354 29.0804 236.319 28.9152C236.293 28.7499 236.232 28.6195 236.136 28.5238C236.041 28.4281 235.906 28.3586 235.732 28.3151C235.566 28.2716 235.349 28.2412 235.079 28.2238V27.9237H242.985L243.011 30.0632H242.659C242.589 29.724 242.511 29.4544 242.424 29.2544C242.337 29.0456 242.211 28.8847 242.046 28.7717C241.889 28.6586 241.676 28.5847 241.407 28.5499C241.146 28.5151 240.807 28.4977 240.389 28.4977H238.38C238.18 28.4977 238.045 28.5281 237.976 28.589C237.915 28.6499 237.884 28.7891 237.884 29.0065V32.307H240.167C240.472 32.307 240.72 32.2897 240.911 32.2549C241.102 32.2201 241.255 32.1549 241.368 32.0592C241.489 31.9548 241.581 31.8113 241.642 31.6287C241.702 31.446 241.759 31.2025 241.811 30.8981H242.163V34.3552H241.811C241.759 34.0421 241.702 33.7942 241.642 33.6116C241.581 33.4203 241.494 33.2768 241.381 33.1811C241.268 33.0767 241.115 33.0072 240.924 32.9724C240.732 32.9376 240.481 32.9202 240.167 32.9202H237.884V36.5991C237.884 36.7469 237.893 36.8556 237.91 36.9252C237.928 36.9948 237.958 37.047 238.002 37.0818C238.071 37.1252 238.237 37.1644 238.497 37.1992C238.767 37.2253 239.084 37.2383 239.45 37.2383H239.867C240.398 37.2383 240.841 37.2122 241.198 37.16C241.563 37.1079 241.872 37.0078 242.124 36.86C242.385 36.7121 242.611 36.5121 242.803 36.2599C242.994 36.0077 243.181 35.6772 243.363 35.2684H243.794L243.116 37.7862ZM252.915 37.9558L246.326 29.7631V35.5946C246.326 35.9772 246.344 36.2903 246.379 36.5339C246.422 36.7687 246.496 36.9557 246.6 37.0948C246.705 37.234 246.848 37.334 247.031 37.3949C247.213 37.4557 247.449 37.4949 247.736 37.5123V37.7862H244.239V37.5123C244.544 37.4862 244.787 37.447 244.97 37.3949C245.161 37.334 245.305 37.234 245.4 37.0948C245.505 36.9557 245.574 36.7687 245.609 36.5339C245.644 36.2903 245.661 35.9772 245.661 35.5946V29.0456C245.513 28.8717 245.387 28.7325 245.283 28.6282C245.178 28.5151 245.074 28.4325 244.97 28.3803C244.865 28.3194 244.757 28.2803 244.644 28.2629C244.531 28.2368 244.396 28.2238 244.239 28.2238V27.9237H246.783L252.51 35.138V30.1154C252.51 29.2109 252.366 28.6542 252.079 28.4455C251.966 28.376 251.84 28.3281 251.701 28.302C251.571 28.2672 251.366 28.2412 251.088 28.2238V27.9237H254.571V28.2238C254.293 28.2412 254.084 28.2716 253.945 28.3151C253.815 28.3586 253.702 28.4151 253.606 28.4847C253.31 28.676 253.162 29.2196 253.162 30.1154V37.9558H252.915ZM257.847 28.5499C257.43 28.5499 257.086 28.5716 256.817 28.6151C256.556 28.6586 256.339 28.7499 256.165 28.8891C255.999 29.0282 255.865 29.2239 255.76 29.4761C255.665 29.7197 255.573 30.0458 255.486 30.4546H255.121L255.212 27.9237H263.613L263.705 30.4546H263.34C263.253 30.0458 263.157 29.7197 263.053 29.4761C262.957 29.2239 262.826 29.0282 262.661 28.8891C262.496 28.7499 262.279 28.6586 262.009 28.6151C261.739 28.5716 261.391 28.5499 260.965 28.5499H260.17V36.1816C260.17 36.4512 260.187 36.6686 260.222 36.8339C260.257 36.9991 260.322 37.1296 260.417 37.2253C260.522 37.3209 260.665 37.3905 260.848 37.434C261.039 37.4688 261.287 37.4949 261.592 37.5123V37.7862H257.26V37.5123C257.565 37.4949 257.808 37.4688 257.991 37.434C258.173 37.3905 258.313 37.3166 258.408 37.2122C258.513 37.0992 258.578 36.947 258.604 36.7556C258.639 36.5643 258.656 36.3121 258.656 35.999V28.5499H257.847Z" fill="#616161"/>
<path d="M84.5422 5.15283H0.572754V45.9925H84.5422V5.15283Z" fill="black" stroke="#616161" stroke-width="3"/>
<path d="M9.84277 39.3131V38.3994C11.4092 38.3994 12.3229 38.1093 12.584 37.5292V15.6429C12.3229 15.0628 11.4092 14.7727 9.84277 14.7727V13.8589H19.2412V14.7727C17.6748 14.7727 16.7611 15.0628 16.5 15.6429V37.5292C16.7611 38.1093 17.6748 38.3994 19.2412 38.3994V39.3131H9.84277ZM25.0283 39.3131V38.3994C25.6954 38.3994 26.2321 38.3559 26.6382 38.2689L16.7176 25.6505L27.3779 15.0773C26.9718 14.8742 26.2321 14.7727 25.1588 14.7727V13.8589H31.9901V14.7727C30.7718 14.7727 29.8725 15.1063 29.2924 15.7734L20.5466 24.4322L30.7718 37.7032C31.2359 38.1673 32.1496 38.3994 33.513 38.3994V39.3131H25.0283ZM42.7855 26.0612C42.2806 26.0612 41.9493 26.2426 41.7916 26.6055C41.6336 26.9526 41.555 27.5126 41.555 28.2857C41.555 28.9167 41.7443 29.7765 42.1229 30.865C43.3218 30.0131 43.9214 29.1297 43.9214 28.2147C43.9214 27.631 43.8187 27.1261 43.6138 26.7002C43.4244 26.2742 43.1481 26.0612 42.7855 26.0612ZM49.4351 31.149V31.646C48.5359 31.646 48.039 31.7959 47.9443 32.0956C47.2183 34.4147 46.4611 36.1106 45.6725 37.1834C46.3508 37.9091 46.9107 38.2719 47.3527 38.2719C47.9519 38.2719 48.3622 38.2166 48.5832 38.1063C48.8199 37.9958 49.0641 37.7592 49.3168 37.3963L49.6008 37.633C49.3798 38.2326 49.0878 38.7059 48.7252 39.0528C48.3622 39.3841 47.8416 39.5498 47.1634 39.5498C46.2641 39.5498 45.3725 39.1868 44.4893 38.4612C43.5901 39.1868 42.5489 39.5498 41.3657 39.5498C38.1314 39.5498 36.5144 38.4692 36.5144 36.3078C36.5144 35.8188 36.6169 35.3691 36.822 34.9589C37.0271 34.533 37.3505 34.1307 37.7922 33.7521C38.2496 33.3734 38.6443 33.0737 38.9756 32.8528C39.3225 32.6162 39.8115 32.3086 40.4428 31.9299C39.8905 30.3997 39.6145 29.1218 39.6145 28.0963C39.6145 26.1875 40.5138 25.233 42.3122 25.233C43.0851 25.233 43.7084 25.5091 44.1817 26.0612C44.6706 26.5976 44.9153 27.2208 44.9153 27.9307C44.9153 28.7037 44.6943 29.3821 44.2527 29.9658C43.8267 30.5495 43.2271 31.1411 42.4542 31.7406C43.1954 33.5707 44.1027 35.1798 45.1756 36.5681C45.7275 35.6846 46.3351 34.1701 46.9977 32.0246C46.8397 31.7722 46.3588 31.646 45.5542 31.646V31.149H49.4351ZM43.9451 37.9643C42.7619 36.7811 41.7283 35.1088 40.8451 32.9475C39.5355 33.9414 38.8809 34.88 38.8809 35.7635C38.8809 37.6251 40.0008 38.5559 42.2412 38.5559C42.8565 38.5559 43.4245 38.3586 43.9451 37.9643ZM66.9622 14.9032C64.4676 14.9032 62.3935 15.933 60.7401 17.9925C59.0867 20.0521 58.2599 22.7208 58.2599 25.9986C58.2599 29.8276 59.1302 32.8299 60.8706 35.0055C62.6111 37.1811 64.6996 38.2689 67.1363 38.2689C68.5867 38.2689 70.0225 37.7757 71.4439 36.7895C72.8653 35.7742 73.779 34.7009 74.1851 33.5696L75.2294 34.0918C74.5622 35.6872 73.5035 37.036 72.0531 38.1383C70.6317 39.2116 68.7027 39.7483 66.2661 39.7483C62.408 39.7483 59.3477 38.5009 57.0851 36.0063C54.8516 33.4826 53.7348 30.4658 53.7348 26.9559C53.7348 22.8948 55.0256 19.6315 57.6073 17.1658C60.218 14.6712 63.3218 13.4238 66.9187 13.4238C67.7599 13.4238 68.7317 13.6414 69.834 14.0765C70.9363 14.5116 71.5745 14.7292 71.7485 14.7292C72.0966 14.7292 72.2706 14.4391 72.2706 13.8589H73.2714L73.7065 19.3849H72.7493C72.5462 18.0796 71.9661 17.0063 71.0088 16.1651C70.0806 15.3238 68.7317 14.9032 66.9622 14.9032Z" fill="#616161"/>
<path d="M264.504 45.4199H89.6948V46.565H264.504V45.4199Z" fill="#616161"/>
</g>
<defs>
<clipPath id="clip0_672_240">
<rect width="264.504" height="50" fill="white"/>
</clipPath>
</defs>
</svg>
