<svg width="160" height="31" viewBox="0 0 160 31" fill="none" xmlns="http://www.w3.org/2000/svg">
<g clip-path="url(#clip0_672_598)">
<path d="M59.1774 18.8009C59.1351 18.6536 59.0931 18.5273 59.0511 18.4221C59.0088 18.3116 58.9643 18.2143 58.9169 18.1301C58.8747 18.0407 58.8248 17.9618 58.7669 17.8934C58.7142 17.825 58.6512 17.754 58.5775 17.6803C58.3986 17.4962 58.1933 17.3594 57.962 17.27C57.7357 17.1753 57.4938 17.1279 57.2359 17.1279C56.9099 17.1279 56.6125 17.1911 56.3442 17.3173C56.0813 17.4436 55.855 17.6251 55.6657 17.8618C55.4814 18.0933 55.3394 18.3748 55.2395 18.7062C55.1395 19.0376 55.0894 19.4059 55.0894 19.811C55.0894 20.3371 55.1605 20.7974 55.3025 21.192C55.4447 21.5866 55.6472 21.8944 55.9102 22.1153C56.3047 22.431 56.7757 22.5888 57.3227 22.5888C57.6963 22.5888 58.041 22.5178 58.3566 22.3757C58.6722 22.2337 58.9984 22.0022 59.335 21.6813L59.493 21.8391C59.2194 22.2021 58.8696 22.4836 58.4434 22.6835C58.0225 22.8834 57.5543 22.9834 57.0387 22.9834C56.5915 22.9834 56.1838 22.9097 55.8155 22.7624C55.4473 22.6151 55.1316 22.4099 54.8684 22.1469C54.6055 21.8786 54.4002 21.5576 54.2529 21.1841C54.1109 20.8106 54.04 20.395 54.04 19.9373C54.04 19.4165 54.1294 18.9482 54.3083 18.5326C54.487 18.1117 54.7502 17.7592 55.0975 17.4752C55.3711 17.2542 55.6788 17.0832 56.0208 16.9622C56.3627 16.8359 56.7072 16.7728 57.0544 16.7728C57.5016 16.7728 57.9435 16.8465 58.3801 16.9938C58.5274 17.0464 58.6459 17.0727 58.7352 17.0727C58.8248 17.0727 58.901 17.0464 58.9643 16.9938C59.0326 16.9412 59.0799 16.8675 59.1062 16.7728H59.2956L59.3824 18.8009H59.1774ZM66.2174 22.8571H63.921V22.6914C63.9998 22.6914 64.0656 22.6914 64.1182 22.6914C64.1708 22.6861 64.2129 22.6809 64.2445 22.6756C64.2814 22.6651 64.3128 22.6572 64.3391 22.6519C64.3655 22.6414 64.3918 22.6283 64.4181 22.6125C64.4601 22.5862 64.4918 22.5546 64.5128 22.5178C64.5391 22.4757 64.5522 22.4336 64.5522 22.3915C64.5522 22.2442 64.4943 22.039 64.3786 21.776L63.9998 20.9158H61.6482L61.2299 21.9654C61.2089 22.0232 61.1904 22.0837 61.1747 22.1469C61.1643 22.2047 61.159 22.2626 61.159 22.3205C61.159 22.4415 61.2063 22.5335 61.301 22.5967C61.3957 22.6598 61.5536 22.6914 61.7745 22.6914V22.8571H59.9831V22.6914C60.0935 22.6861 60.1884 22.6677 60.2671 22.6361C60.3461 22.6046 60.425 22.5388 60.504 22.4389C60.583 22.3336 60.667 22.1863 60.7566 21.9969C60.8512 21.8023 60.9694 21.5392 61.1117 21.2078L62.9818 16.7886H63.1554L65.4044 21.9022C65.4781 22.0706 65.5413 22.2047 65.594 22.3047C65.6517 22.4047 65.7097 22.4836 65.7676 22.5414C65.8253 22.5941 65.8886 22.6309 65.9569 22.6519C66.0306 22.673 66.1174 22.6861 66.2174 22.6914V22.8571ZM63.8815 20.5528L62.8398 18.067L61.7981 20.5528H63.8815ZM68.1438 21.8865C68.1438 22.0495 68.1542 22.1837 68.1755 22.2889C68.1965 22.3889 68.2359 22.4678 68.2937 22.5257C68.3569 22.5835 68.4437 22.6256 68.5541 22.6519C68.6647 22.673 68.8092 22.6861 68.9881 22.6914V22.8571H66.463V22.6914C66.6366 22.6756 66.7708 22.6545 66.8654 22.6282C66.9654 22.602 67.0416 22.5572 67.0942 22.4941C67.1469 22.431 67.1785 22.3442 67.1889 22.2337C67.2046 22.1179 67.2127 21.9654 67.2127 21.776V17.8776C67.2127 17.7145 67.2046 17.5856 67.1889 17.4909C67.1732 17.391 67.139 17.3147 67.0864 17.2621C67.0337 17.2042 66.9576 17.1621 66.8576 17.1358C66.7576 17.1095 66.626 17.0885 66.463 17.0727V16.8912H68.8383C69.2855 16.8912 69.6879 16.9543 70.0456 17.0806C70.4085 17.2068 70.6821 17.3726 70.8664 17.5777C71.0926 17.8461 71.2058 18.1617 71.2058 18.5247C71.2058 18.8246 71.1268 19.1034 70.9689 19.3612C70.8163 19.6137 70.6059 19.8136 70.3376 19.961C70.143 20.0662 69.9193 20.1425 69.6669 20.1898C69.4197 20.2371 69.117 20.2608 68.7593 20.2608C68.6437 20.2608 68.5409 20.2608 68.4516 20.2608C68.3673 20.2556 68.2648 20.2503 68.1438 20.245V21.8865ZM68.1438 19.8741C68.2491 19.8847 68.3359 19.8926 68.4043 19.8978C68.4779 19.9031 68.5594 19.9057 68.6488 19.9057C69.6958 19.9057 70.2192 19.4638 70.2192 18.58C70.2192 18.1117 70.0747 17.7698 69.7852 17.5541C69.5012 17.3384 69.0514 17.2305 68.4359 17.2305C68.3147 17.2305 68.2359 17.2516 68.199 17.2936C68.1623 17.3305 68.1438 17.412 68.1438 17.5383V19.8741ZM72.4061 17.8776C72.4061 17.7093 72.3955 17.5751 72.3745 17.4752C72.3588 17.3752 72.3193 17.2963 72.2563 17.2384C72.193 17.1805 72.1036 17.1411 71.9877 17.12C71.8721 17.099 71.7195 17.0832 71.5301 17.0727V16.8912H74.2054V17.0727C74.016 17.078 73.8634 17.0937 73.7477 17.12C73.6318 17.1411 73.5425 17.1805 73.4792 17.2384C73.4162 17.2963 73.3742 17.3778 73.3532 17.483C73.3319 17.583 73.3215 17.7145 73.3215 17.8776V21.8865C73.3215 22.0495 73.3319 22.1837 73.3532 22.2889C73.3795 22.3889 73.424 22.4678 73.4873 22.5257C73.5503 22.5835 73.6397 22.6256 73.7556 22.6519C73.8713 22.673 74.0211 22.6861 74.2054 22.6914V22.8571H71.5301V22.6914C71.7195 22.6861 71.8721 22.673 71.9877 22.6519C72.1036 22.6256 72.1905 22.5835 72.2482 22.5257C72.3114 22.4678 72.3535 22.3889 72.3745 22.2889C72.3955 22.189 72.4061 22.0548 72.4061 21.8865V17.8776ZM76.2186 17.27C75.966 17.27 75.7582 17.2831 75.5952 17.3094C75.4373 17.3357 75.3057 17.391 75.2007 17.4752C75.1007 17.5593 75.0192 17.6777 74.9559 17.8303C74.898 17.9776 74.8428 18.1749 74.7902 18.4221H74.5692L74.6246 16.8912H79.7065L79.7619 18.4221H79.541C79.4883 18.1749 79.4304 17.9776 79.3674 17.8303C79.3094 17.6777 79.2305 17.5593 79.1305 17.4752C79.0305 17.391 78.8991 17.3357 78.7359 17.3094C78.5729 17.2831 78.3624 17.27 78.1047 17.27H77.6233V21.8865C77.6233 22.0495 77.6337 22.1811 77.6549 22.281C77.6759 22.381 77.7154 22.4599 77.7731 22.5178C77.8364 22.5756 77.9232 22.6177 78.0336 22.644C78.1495 22.6651 78.2993 22.6809 78.4833 22.6914V22.8571H75.8635V22.6914C76.0475 22.6809 76.1948 22.6651 76.3054 22.644C76.4158 22.6177 76.5001 22.573 76.558 22.5099C76.621 22.4415 76.6605 22.3494 76.6762 22.2337C76.6972 22.1179 76.7079 21.9654 76.7079 21.776V17.27H76.2186ZM86.3363 22.8571H84.0399V22.6914C84.1189 22.6914 84.1847 22.6914 84.2373 22.6914C84.2897 22.6861 84.332 22.6809 84.3634 22.6756C84.4003 22.6651 84.432 22.6572 84.4583 22.6519C84.4846 22.6414 84.5107 22.6283 84.537 22.6125C84.5793 22.5862 84.6107 22.5546 84.6319 22.5178C84.658 22.4757 84.6711 22.4336 84.6711 22.3915C84.6711 22.2442 84.6134 22.039 84.4975 21.776L84.1189 20.9158H81.7671L81.349 21.9654C81.328 22.0232 81.3095 22.0837 81.2938 22.1469C81.2832 22.2047 81.2779 22.2626 81.2779 22.3205C81.2779 22.4415 81.3252 22.5335 81.4199 22.5967C81.5148 22.6598 81.6725 22.6914 81.8934 22.6914V22.8571H80.102V22.6914C80.2126 22.6861 80.3073 22.6677 80.3862 22.6361C80.4652 22.6046 80.5439 22.5388 80.6229 22.4389C80.7019 22.3336 80.7861 22.1863 80.8755 21.9969C80.9701 21.8023 81.0886 21.5392 81.2306 21.2078L83.1009 16.7886H83.2746L85.5236 21.9022C85.5972 22.0706 85.6602 22.2047 85.7129 22.3047C85.7708 22.4047 85.8286 22.4836 85.8865 22.5414C85.9445 22.5941 86.0075 22.6309 86.0758 22.6519C86.1495 22.673 86.2363 22.6861 86.3363 22.6914V22.8571ZM84.0004 20.5528L82.9587 18.067L81.9172 20.5528H84.0004ZM91.8298 21.2946L91.3877 22.8571H86.5503V22.6914C86.7135 22.6809 86.8449 22.6624 86.9449 22.6361C87.0501 22.6098 87.1291 22.5677 87.1817 22.5099C87.2395 22.452 87.2789 22.3731 87.3 22.2731C87.3212 22.1732 87.3316 22.0443 87.3316 21.8865V17.8776C87.3316 17.7198 87.3212 17.5909 87.3 17.4909C87.2843 17.391 87.2475 17.3121 87.1896 17.2542C87.1316 17.1963 87.0501 17.1542 86.9449 17.1279C86.8449 17.1016 86.7135 17.0832 86.5503 17.0727V16.8912H89.0835V17.0727C88.9046 17.0832 88.76 17.1016 88.6494 17.1279C88.5391 17.149 88.4548 17.1911 88.3969 17.2542C88.3391 17.3121 88.2997 17.391 88.2787 17.4909C88.2576 17.5909 88.247 17.7198 88.247 17.8776V22.139C88.247 22.2179 88.2549 22.2837 88.2706 22.3363C88.2918 22.3836 88.3313 22.4204 88.389 22.4468C88.447 22.4731 88.5259 22.4915 88.6259 22.502C88.7259 22.5072 88.86 22.5099 89.0283 22.5099H89.6279C90.0121 22.5099 90.3303 22.4652 90.5828 22.3757C90.8407 22.2863 91.0511 22.1495 91.2143 21.9654C91.2773 21.8917 91.3378 21.7996 91.3958 21.6892C91.4588 21.5787 91.5271 21.4472 91.6008 21.2946H91.8298ZM98.1606 22.8571H98.0264L95.7615 17.9092V21.5313C95.7615 21.7628 95.7721 21.9522 95.7931 22.0995C95.8194 22.2416 95.8642 22.3547 95.9273 22.4389C95.9903 22.523 96.0771 22.5835 96.1877 22.6204C96.298 22.6572 96.4403 22.6809 96.6139 22.6914V22.8571H94.4988V22.6914C94.683 22.6756 94.8303 22.6519 94.9409 22.6204C95.0566 22.5835 95.1434 22.523 95.2011 22.4389C95.2644 22.3547 95.3064 22.2416 95.3274 22.0995C95.3484 21.9522 95.3591 21.7628 95.3591 21.5313V17.8776C95.3591 17.7145 95.3484 17.583 95.3274 17.483C95.3117 17.3831 95.2722 17.3042 95.2092 17.2463C95.1513 17.1884 95.067 17.149 94.9566 17.1279C94.846 17.1016 94.6987 17.0832 94.5147 17.0727V16.8912H96.298L98.3737 21.4445L100.378 16.8912H102.161V17.0727C101.993 17.0832 101.859 17.1016 101.759 17.1279C101.659 17.1542 101.58 17.1963 101.522 17.2542C101.464 17.3121 101.425 17.391 101.404 17.4909C101.388 17.5909 101.38 17.7198 101.38 17.8776V21.8865C101.38 22.0443 101.391 22.1732 101.412 22.2731C101.433 22.3731 101.47 22.452 101.522 22.5099C101.58 22.5677 101.659 22.6098 101.759 22.6361C101.864 22.6624 101.998 22.6809 102.161 22.6914V22.8571H99.6361V22.6914C99.815 22.6809 99.957 22.6624 100.062 22.6361C100.173 22.6098 100.257 22.5651 100.315 22.502C100.373 22.4336 100.41 22.3442 100.425 22.2337C100.447 22.1179 100.457 21.9654 100.457 21.776V17.6961L98.1606 22.8571ZM108.823 22.8571H106.526V22.6914C106.605 22.6914 106.671 22.6914 106.724 22.6914C106.776 22.6861 106.818 22.6809 106.85 22.6756C106.887 22.6651 106.918 22.6572 106.945 22.6519C106.971 22.6414 106.997 22.6283 107.024 22.6125C107.066 22.5862 107.097 22.5546 107.118 22.5178C107.145 22.4757 107.158 22.4336 107.158 22.3915C107.158 22.2442 107.1 22.039 106.984 21.776L106.605 20.9158H104.254L103.835 21.9654C103.814 22.0232 103.796 22.0837 103.78 22.1469C103.77 22.2047 103.764 22.2626 103.764 22.3205C103.764 22.4415 103.812 22.5335 103.906 22.5967C104.001 22.6598 104.159 22.6914 104.38 22.6914V22.8571H102.589V22.6914C102.699 22.6861 102.794 22.6677 102.873 22.6361C102.952 22.6046 103.031 22.5388 103.109 22.4389C103.188 22.3336 103.272 22.1863 103.362 21.9969C103.457 21.8023 103.575 21.5392 103.717 21.2078L105.587 16.7886H105.761L108.01 21.9022C108.084 22.0706 108.147 22.2047 108.199 22.3047C108.257 22.4047 108.315 22.4836 108.373 22.5414C108.431 22.5941 108.494 22.6309 108.562 22.6519C108.636 22.673 108.723 22.6861 108.823 22.6914V22.8571ZM106.487 20.5528L105.445 18.067L104.404 20.5528H106.487ZM114.285 22.9597L110.299 18.0039V21.5313C110.299 21.7628 110.31 21.9522 110.331 22.0995C110.357 22.2416 110.402 22.3547 110.465 22.4389C110.528 22.523 110.615 22.5835 110.726 22.6204C110.836 22.6572 110.978 22.6809 111.152 22.6914V22.8571H109.037V22.6914C109.221 22.6756 109.368 22.6519 109.479 22.6204C109.594 22.5835 109.681 22.523 109.739 22.4389C109.802 22.3547 109.844 22.2416 109.865 22.0995C109.887 21.9522 109.897 21.7628 109.897 21.5313V17.5698C109.808 17.4646 109.731 17.3805 109.668 17.3173C109.605 17.2489 109.542 17.199 109.479 17.1674C109.416 17.1306 109.35 17.1069 109.281 17.0964C109.213 17.0806 109.132 17.0727 109.037 17.0727V16.8912H110.576L114.04 21.2551V18.2169C114.04 17.6698 113.953 17.3331 113.78 17.2068C113.711 17.1648 113.635 17.1358 113.551 17.12C113.472 17.099 113.348 17.0832 113.18 17.0727V16.8912H115.287V17.0727C115.118 17.0832 114.992 17.1016 114.908 17.1279C114.829 17.1542 114.761 17.1884 114.703 17.2305C114.524 17.3463 114.435 17.6751 114.435 18.2169V22.9597H114.285ZM121.845 22.8571H119.549V22.6914C119.628 22.6914 119.694 22.6914 119.746 22.6914C119.799 22.6861 119.841 22.6809 119.873 22.6756C119.909 22.6651 119.941 22.6572 119.967 22.6519C119.994 22.6414 120.02 22.6283 120.046 22.6125C120.088 22.5862 120.12 22.5546 120.141 22.5178C120.167 22.4757 120.18 22.4336 120.18 22.3915C120.18 22.2442 120.123 22.039 120.007 21.776L119.628 20.9158H117.276L116.858 21.9654C116.837 22.0232 116.819 22.0837 116.803 22.1469C116.792 22.2047 116.787 22.2626 116.787 22.3205C116.787 22.4415 116.834 22.5335 116.929 22.5967C117.024 22.6598 117.182 22.6914 117.403 22.6914V22.8571H115.611V22.6914C115.722 22.6861 115.816 22.6677 115.895 22.6361C115.974 22.6046 116.053 22.5388 116.132 22.4389C116.211 22.3336 116.295 22.1863 116.385 21.9969C116.479 21.8023 116.598 21.5392 116.74 21.2078L118.61 16.7886H118.784L121.033 21.9022C121.106 22.0706 121.169 22.2047 121.222 22.3047C121.28 22.4047 121.338 22.4836 121.396 22.5414C121.454 22.5941 121.517 22.6309 121.585 22.6519C121.659 22.673 121.745 22.6861 121.845 22.6914V22.8571ZM119.51 20.5528L118.468 18.067L117.426 20.5528H119.51ZM128.333 19.8347C128.202 19.8452 128.094 19.8636 128.01 19.8899C127.931 19.911 127.868 19.9478 127.82 20.0004C127.778 20.0477 127.749 20.1162 127.734 20.2056C127.718 20.2898 127.71 20.3976 127.71 20.5291V22.352C127.62 22.431 127.489 22.5099 127.315 22.5888C127.142 22.6624 126.947 22.7308 126.731 22.794C126.521 22.8518 126.303 22.8966 126.076 22.9281C125.855 22.9649 125.648 22.9834 125.453 22.9834C124.953 22.9834 124.49 22.9018 124.064 22.7387C123.643 22.5756 123.283 22.3363 122.983 22.0206C122.73 21.7523 122.544 21.4472 122.423 21.1052C122.302 20.7632 122.241 20.3739 122.241 19.9373C122.241 19.4743 122.317 19.0508 122.47 18.6668C122.622 18.2775 122.833 17.9434 123.101 17.6646C123.375 17.3857 123.698 17.1674 124.072 17.0096C124.451 16.8517 124.866 16.7728 125.319 16.7728C125.729 16.7728 126.139 16.8412 126.55 16.978C126.723 17.0411 126.858 17.0727 126.952 17.0727C127.047 17.0727 127.131 17.0438 127.205 16.9859C127.278 16.928 127.328 16.857 127.355 16.7728H127.544L127.623 18.6747H127.418C127.36 18.5379 127.307 18.4195 127.26 18.3195C127.213 18.2143 127.163 18.1223 127.11 18.0433C127.063 17.9592 127.013 17.8855 126.96 17.8224C126.907 17.754 126.847 17.6882 126.779 17.6251C126.421 17.2936 125.987 17.1279 125.476 17.1279C125.15 17.1279 124.848 17.1911 124.569 17.3173C124.296 17.4436 124.061 17.6251 123.867 17.8618C123.683 18.0881 123.535 18.3879 123.425 18.7614C123.314 19.1297 123.259 19.5164 123.259 19.9215C123.259 20.3424 123.314 20.7212 123.425 21.0578C123.535 21.3893 123.693 21.6708 123.898 21.9022C124.103 22.1337 124.351 22.3126 124.64 22.4389C124.935 22.5651 125.266 22.6282 125.634 22.6282C125.797 22.6282 125.95 22.6151 126.092 22.5888C126.239 22.5572 126.368 22.5178 126.479 22.4704C126.589 22.4231 126.676 22.3678 126.739 22.3047C126.802 22.2363 126.834 22.1653 126.834 22.0916V20.6317C126.834 20.4686 126.826 20.3371 126.81 20.2371C126.794 20.1372 126.758 20.0609 126.7 20.0083C126.647 19.9504 126.568 19.911 126.463 19.8899C126.358 19.8636 126.216 19.8452 126.037 19.8347V19.669H128.333V19.8347ZM133.464 22.8571H128.602V22.6914C128.766 22.6809 128.897 22.6624 128.997 22.6361C129.102 22.6098 129.181 22.5677 129.234 22.5099C129.292 22.452 129.331 22.3731 129.352 22.2731C129.373 22.1732 129.384 22.0443 129.384 21.8865V17.8776C129.384 17.7198 129.373 17.5909 129.352 17.4909C129.336 17.391 129.3 17.3121 129.242 17.2542C129.184 17.1963 129.102 17.1542 128.997 17.1279C128.897 17.1016 128.766 17.0832 128.602 17.0727V16.8912H133.385L133.4 18.1854H133.187C133.145 17.9802 133.098 17.8171 133.045 17.6961C132.993 17.5698 132.916 17.4725 132.816 17.4041C132.722 17.3357 132.593 17.291 132.43 17.27C132.272 17.2489 132.067 17.2384 131.814 17.2384H130.599C130.478 17.2384 130.397 17.2568 130.354 17.2936C130.318 17.3305 130.299 17.4147 130.299 17.5462V19.5427H131.68C131.864 19.5427 132.014 19.5322 132.13 19.5111C132.246 19.4901 132.338 19.4506 132.406 19.3928C132.48 19.3296 132.535 19.2428 132.572 19.1324C132.609 19.0219 132.643 18.8746 132.674 18.6904H132.887V20.7816H132.674C132.643 20.5923 132.609 20.4423 132.572 20.3318C132.535 20.2161 132.482 20.1293 132.414 20.0714C132.346 20.0083 132.253 19.9662 132.138 19.9452C132.022 19.9241 131.87 19.9136 131.68 19.9136H130.299V22.139C130.299 22.2284 130.304 22.2942 130.315 22.3363C130.325 22.3783 130.344 22.4099 130.37 22.431C130.412 22.4573 130.512 22.4809 130.67 22.502C130.833 22.5178 131.025 22.5257 131.246 22.5257H131.499C131.819 22.5257 132.088 22.5099 132.304 22.4783C132.525 22.4468 132.711 22.3862 132.864 22.2968C133.022 22.2074 133.158 22.0864 133.274 21.9338C133.39 21.7812 133.503 21.5813 133.613 21.3341H133.874L133.464 22.8571ZM137.805 22.8571H137.671L135.406 17.9092V21.5313C135.406 21.7628 135.416 21.9522 135.437 22.0995C135.464 22.2416 135.508 22.3547 135.571 22.4389C135.635 22.523 135.722 22.5835 135.832 22.6204C135.942 22.6572 136.084 22.6809 136.258 22.6914V22.8571H134.143V22.6914C134.327 22.6756 134.475 22.6519 134.585 22.6204C134.701 22.5835 134.788 22.523 134.846 22.4389C134.909 22.3547 134.951 22.2416 134.972 22.0995C134.993 21.9522 135.003 21.7628 135.003 21.5313V17.8776C135.003 17.7145 134.993 17.583 134.972 17.483C134.956 17.3831 134.916 17.3042 134.853 17.2463C134.795 17.1884 134.711 17.149 134.601 17.1279C134.49 17.1016 134.343 17.0832 134.159 17.0727V16.8912H135.942L138.018 21.4445L140.022 16.8912H141.806V17.0727C141.637 17.0832 141.503 17.1016 141.403 17.1279C141.303 17.1542 141.224 17.1963 141.167 17.2542C141.109 17.3121 141.069 17.391 141.048 17.4909C141.032 17.5909 141.024 17.7198 141.024 17.8776V21.8865C141.024 22.0443 141.035 22.1732 141.056 22.2731C141.077 22.3731 141.114 22.452 141.167 22.5099C141.224 22.5677 141.303 22.6098 141.403 22.6361C141.509 22.6624 141.643 22.6809 141.806 22.6914V22.8571H139.281V22.6914C139.459 22.6809 139.601 22.6624 139.707 22.6361C139.817 22.6098 139.901 22.5651 139.959 22.502C140.017 22.4336 140.054 22.3442 140.07 22.2337C140.091 22.1179 140.101 21.9654 140.101 21.776V17.6961L137.805 22.8571ZM147.062 22.8571H142.201V22.6914C142.364 22.6809 142.496 22.6624 142.596 22.6361C142.701 22.6098 142.78 22.5677 142.833 22.5099C142.89 22.452 142.93 22.3731 142.951 22.2731C142.972 22.1732 142.982 22.0443 142.982 21.8865V17.8776C142.982 17.7198 142.972 17.5909 142.951 17.4909C142.935 17.391 142.898 17.3121 142.84 17.2542C142.783 17.1963 142.701 17.1542 142.596 17.1279C142.496 17.1016 142.364 17.0832 142.201 17.0727V16.8912H146.983L146.999 18.1854H146.786C146.744 17.9802 146.697 17.8171 146.644 17.6961C146.592 17.5698 146.515 17.4725 146.415 17.4041C146.321 17.3357 146.192 17.291 146.028 17.27C145.871 17.2489 145.666 17.2384 145.413 17.2384H144.198C144.077 17.2384 143.995 17.2568 143.953 17.2936C143.916 17.3305 143.898 17.4147 143.898 17.5462V19.5427H145.279C145.463 19.5427 145.613 19.5322 145.729 19.5111C145.844 19.4901 145.937 19.4506 146.005 19.3928C146.079 19.3296 146.134 19.2428 146.171 19.1324C146.207 19.0219 146.242 18.8746 146.273 18.6904H146.486V20.7816H146.273C146.242 20.5923 146.207 20.4423 146.171 20.3318C146.134 20.2161 146.081 20.1293 146.013 20.0714C145.944 20.0083 145.852 19.9662 145.737 19.9452C145.621 19.9241 145.468 19.9136 145.279 19.9136H143.898V22.139C143.898 22.2284 143.903 22.2942 143.914 22.3363C143.924 22.3783 143.943 22.4099 143.969 22.431C144.011 22.4573 144.111 22.4809 144.269 22.502C144.432 22.5178 144.624 22.5257 144.845 22.5257H145.097C145.418 22.5257 145.687 22.5099 145.902 22.4783C146.123 22.4468 146.31 22.3862 146.463 22.2968C146.62 22.2074 146.757 22.0864 146.873 21.9338C146.989 21.7812 147.102 21.5813 147.212 21.3341H147.473L147.062 22.8571ZM152.99 22.9597L149.005 18.0039V21.5313C149.005 21.7628 149.015 21.9522 149.036 22.0995C149.062 22.2416 149.107 22.3547 149.17 22.4389C149.233 22.523 149.32 22.5835 149.431 22.6204C149.541 22.6572 149.683 22.6809 149.857 22.6914V22.8571H147.742V22.6914C147.926 22.6756 148.073 22.6519 148.184 22.6204C148.3 22.5835 148.386 22.523 148.444 22.4389C148.507 22.3547 148.549 22.2416 148.57 22.0995C148.591 21.9522 148.602 21.7628 148.602 21.5313V17.5698C148.513 17.4646 148.436 17.3805 148.373 17.3173C148.31 17.2489 148.247 17.199 148.184 17.1674C148.121 17.1306 148.055 17.1069 147.987 17.0964C147.918 17.0806 147.837 17.0727 147.742 17.0727V16.8912H149.281L152.745 21.2551V18.2169C152.745 17.6698 152.658 17.3331 152.485 17.2068C152.416 17.1648 152.34 17.1358 152.256 17.12C152.177 17.099 152.053 17.0832 151.885 17.0727V16.8912H153.992V17.0727C153.824 17.0832 153.697 17.1016 153.613 17.1279C153.534 17.1542 153.466 17.1884 153.408 17.2305C153.229 17.3463 153.14 17.6751 153.14 18.2169V22.9597H152.99ZM155.974 17.27C155.721 17.27 155.513 17.2831 155.35 17.3094C155.192 17.3357 155.061 17.391 154.956 17.4752C154.856 17.5593 154.774 17.6777 154.711 17.8303C154.653 17.9776 154.598 18.1749 154.545 18.4221H154.324L154.38 16.8912H159.462L159.517 18.4221H159.296C159.243 18.1749 159.185 17.9776 159.122 17.8303C159.064 17.6777 158.985 17.5593 158.886 17.4752C158.786 17.391 158.654 17.3357 158.491 17.3094C158.328 17.2831 158.117 17.27 157.86 17.27H157.378V21.8865C157.378 22.0495 157.389 22.1811 157.41 22.281C157.431 22.381 157.47 22.4599 157.528 22.5178C157.591 22.5756 157.678 22.6177 157.789 22.644C157.905 22.6651 158.054 22.6809 158.239 22.6914V22.8571H155.619V22.6914C155.803 22.6809 155.95 22.6651 156.06 22.644C156.171 22.6177 156.255 22.573 156.313 22.5099C156.376 22.4415 156.416 22.3494 156.431 22.2337C156.453 22.1179 156.463 21.9654 156.463 21.776V17.27H155.974Z" fill="white"/>
<path d="M51.1398 3.11694H0.346191V27.8211H51.1398V3.11694Z" fill="black" stroke="#616161" stroke-width="3"/>
<path d="M5.9541 23.7807V23.228C6.90163 23.228 7.45436 23.0525 7.61228 22.7016V9.46246C7.45436 9.11152 6.90163 8.93605 5.9541 8.93605V8.38332H11.6393V8.93605C10.6918 8.93605 10.139 9.11152 9.98111 9.46246V22.7016C10.139 23.0525 10.6918 23.228 11.6393 23.228V23.7807H5.9541ZM15.1399 23.7807V23.228C15.5435 23.228 15.8681 23.2017 16.1138 23.149L10.1127 15.5161L16.5612 9.12029C16.3155 8.99746 15.8681 8.93605 15.2189 8.93605V8.38332H19.3512V8.93605C18.6142 8.93605 18.0702 9.13784 17.7193 9.54142L12.4289 14.7792L18.6142 22.8069C18.8949 23.0876 19.4477 23.228 20.2724 23.228V23.7807H15.1399ZM25.8814 15.7646C25.5759 15.7646 25.3755 15.8743 25.2802 16.0938C25.1846 16.3037 25.137 16.6425 25.137 17.1101C25.137 17.4918 25.2515 18.012 25.4806 18.6704C26.2058 18.1551 26.5685 17.6207 26.5685 17.0672C26.5685 16.7141 26.5064 16.4087 26.3824 16.1511C26.2679 15.8934 26.1007 15.7646 25.8814 15.7646ZM29.9038 18.8422V19.1428C29.3598 19.1428 29.0592 19.2335 29.002 19.4148C28.5628 20.8176 28.1048 21.8435 27.6278 22.4924C28.038 22.9314 28.3767 23.1509 28.6441 23.1509C29.0066 23.1509 29.2548 23.1174 29.3884 23.0507C29.5316 22.9839 29.6794 22.8407 29.8322 22.6212L30.004 22.7644C29.8703 23.1271 29.6937 23.4134 29.4743 23.6233C29.2548 23.8237 28.9398 23.9239 28.5296 23.9239C27.9856 23.9239 27.4463 23.7043 26.912 23.2654C26.3681 23.7043 25.7382 23.9239 25.0225 23.9239C23.0661 23.9239 22.0879 23.2702 22.0879 21.9628C22.0879 21.6669 22.1499 21.395 22.274 21.1468C22.3981 20.8892 22.5937 20.6458 22.8609 20.4168C23.1376 20.1878 23.3763 20.0065 23.5767 19.8728C23.7866 19.7297 24.0824 19.5436 24.4642 19.3146C24.1301 18.3889 23.9632 17.6159 23.9632 16.9956C23.9632 15.8409 24.5072 15.2636 25.5951 15.2636C26.0626 15.2636 26.4396 15.4305 26.7259 15.7646C27.0217 16.089 27.1697 16.466 27.1697 16.8954C27.1697 17.363 27.036 17.7734 26.7689 18.1265C26.5112 18.4796 26.1485 18.8374 25.681 19.2001C26.1293 20.3071 26.6781 21.2805 27.3271 22.1202C27.661 21.5858 28.0286 20.6697 28.4294 19.3718C28.3338 19.2192 28.0429 19.1428 27.5562 19.1428V18.8422H29.9038ZM26.5828 22.9648C25.8671 22.2491 25.2418 21.2375 24.7076 19.9301C23.9154 20.5313 23.5195 21.0991 23.5195 21.6335C23.5195 22.7596 24.1969 23.3227 25.5521 23.3227C25.9243 23.3227 26.2679 23.2033 26.5828 22.9648ZM40.506 9.01501C38.997 9.01501 37.7424 9.63792 36.7422 10.8838C35.742 12.1296 35.242 13.7439 35.242 15.7267C35.242 18.0429 35.7684 19.859 36.8212 21.175C37.874 22.491 39.1374 23.149 40.6113 23.149C41.4887 23.149 42.3572 22.8507 43.217 22.2541C44.0768 21.64 44.6295 20.9908 44.8752 20.3064L45.5069 20.6223C45.1033 21.5874 44.4629 22.4033 43.5855 23.0701C42.7257 23.7193 41.5588 24.0439 40.0849 24.0439C37.7512 24.0439 35.9 23.2894 34.5313 21.7804C33.1802 20.2538 32.5046 18.4289 32.5046 16.3057C32.5046 13.8492 33.2855 11.8752 34.8471 10.3837C36.4264 8.87463 38.3039 8.12012 40.4797 8.12012C40.9886 8.12012 41.5764 8.25172 42.2432 8.51492C42.91 8.77813 43.296 8.90973 43.4013 8.90973C43.6118 8.90973 43.7171 8.73426 43.7171 8.38332H44.3225L44.5857 11.726H44.0066C43.8838 10.9364 43.5329 10.2872 42.9538 9.7783C42.3923 9.26944 41.5764 9.01501 40.506 9.01501Z" fill="white"/>
<path d="M160 27.4747H54.2568V28.1674H160V27.4747Z" fill="white"/>
</g>
<defs>
<clipPath id="clip0_672_598">
<rect width="160" height="30.2453" fill="white"/>
</clipPath>
</defs>
</svg>
