<svg width="200" height="38" viewBox="0 0 200 38" fill="none" xmlns="http://www.w3.org/2000/svg">
<g clip-path="url(#clip0_63_1799)">
<path d="M73.9715 23.5012C73.9186 23.317 73.8661 23.1592 73.8136 23.0277C73.7608 22.8896 73.7051 22.7679 73.6459 22.6627C73.5931 22.5509 73.5308 22.4523 73.4583 22.3668C73.3925 22.2813 73.3137 22.1925 73.2217 22.1004C72.998 21.8703 72.7414 21.6993 72.4523 21.5875C72.1694 21.4691 71.867 21.4099 71.5446 21.4099C71.1371 21.4099 70.7654 21.4889 70.43 21.6467C70.1013 21.8045 69.8185 22.0314 69.5818 22.3273C69.3515 22.6167 69.174 22.9685 69.0491 23.3828C68.9241 23.7971 68.8615 24.2574 68.8615 24.7638C68.8615 25.4214 68.9504 25.9968 69.1279 26.49C69.3056 26.9833 69.5588 27.368 69.8875 27.6442C70.3807 28.0387 70.9694 28.236 71.6531 28.236C72.1201 28.236 72.551 28.1472 72.9455 27.9697C73.34 27.7921 73.7478 27.5028 74.1686 27.1016L74.366 27.2989C74.024 27.7527 73.5867 28.1045 73.054 28.3544C72.5279 28.6043 71.9426 28.7292 71.2981 28.7292C70.7391 28.7292 70.2295 28.6372 69.7691 28.453C69.3088 28.2689 68.9143 28.0124 68.5853 27.6836C68.2566 27.3482 68 26.9471 67.8159 26.4802C67.6384 26.0133 67.5498 25.4937 67.5498 24.9216C67.5498 24.2706 67.6615 23.6853 67.8852 23.1658C68.1085 22.6397 68.4375 22.1991 68.8716 21.844C69.2136 21.5678 69.5983 21.3541 70.0257 21.2028C70.4531 21.045 70.8837 20.9661 71.3178 20.9661C71.8768 20.9661 72.4292 21.0581 72.9749 21.2423C73.159 21.308 73.3071 21.3409 73.4188 21.3409C73.5308 21.3409 73.626 21.308 73.7051 21.2423C73.7905 21.1765 73.8497 21.0844 73.8826 20.9661H74.1192L74.2277 23.5012H73.9715ZM82.7715 28.5714H79.901V28.3642C79.9994 28.3642 80.0817 28.3642 80.1475 28.3642C80.2133 28.3577 80.2658 28.3511 80.3054 28.3445C80.3515 28.3314 80.3908 28.3215 80.4237 28.3149C80.4566 28.3018 80.4895 28.2853 80.5224 28.2656C80.5749 28.2327 80.6145 28.1933 80.6407 28.1472C80.6736 28.0946 80.6901 28.042 80.6901 27.9894C80.6901 27.8053 80.6176 27.5488 80.473 27.22L79.9994 26.1448H77.0601L76.5371 27.4567C76.5108 27.5291 76.4878 27.6047 76.4681 27.6836C76.4551 27.756 76.4485 27.8283 76.4485 27.9006C76.4485 28.0519 76.5077 28.167 76.626 28.2459C76.7443 28.3248 76.9417 28.3642 77.2179 28.3642V28.5714H74.9787V28.3642C75.1166 28.3577 75.2352 28.3347 75.3336 28.2952C75.4323 28.2557 75.531 28.1735 75.6298 28.0486C75.7285 27.9171 75.8335 27.7329 75.9455 27.4962C76.0638 27.2529 76.2116 26.9241 76.3893 26.5098L78.727 20.9858H78.944L81.7553 27.3778C81.8474 27.5883 81.9264 27.756 81.9922 27.8809C82.0644 28.0059 82.1368 28.1045 82.2093 28.1768C82.2814 28.2426 82.3605 28.2886 82.4459 28.3149C82.538 28.3412 82.6465 28.3577 82.7715 28.3642V28.5714ZM79.8517 25.691L78.5495 22.5838L77.2473 25.691H79.8517ZM85.1795 27.3581C85.1795 27.562 85.1925 27.7296 85.2191 27.8612C85.2453 27.9861 85.2947 28.0848 85.3668 28.1571C85.4459 28.2294 85.5544 28.2821 85.6924 28.3149C85.8306 28.3412 86.0113 28.3577 86.2349 28.3642V28.5714H83.0785V28.3642C83.2956 28.3445 83.4632 28.3182 83.5815 28.2853C83.7065 28.2525 83.8018 28.1966 83.8676 28.1176C83.9334 28.0387 83.9729 27.9302 83.9859 27.7921C84.0055 27.6474 84.0156 27.4567 84.0156 27.22V22.347C84.0156 22.1432 84.0055 21.9821 83.9859 21.8637C83.9663 21.7388 83.9235 21.6434 83.8577 21.5776C83.7919 21.5053 83.6967 21.4527 83.5717 21.4198C83.4468 21.3869 83.2823 21.3606 83.0785 21.3409V21.114H86.0476C86.6067 21.114 87.1097 21.1929 87.5567 21.3508C88.0104 21.5086 88.3524 21.7157 88.5827 21.9722C88.8655 22.3076 89.0069 22.7022 89.0069 23.1559C89.0069 23.5308 88.9082 23.8793 88.7108 24.2015C88.5201 24.5172 88.2572 24.7671 87.9218 24.9512C87.6785 25.0827 87.3989 25.1781 87.0834 25.2373C86.7743 25.2965 86.396 25.3261 85.9489 25.3261C85.8043 25.3261 85.6759 25.3261 85.5642 25.3261C85.4589 25.3195 85.3308 25.3129 85.1795 25.3063V27.3581ZM85.1795 24.8427C85.3111 24.8559 85.4196 24.8657 85.5051 24.8723C85.5971 24.8789 85.699 24.8822 85.8107 24.8822C87.1195 24.8822 87.7738 24.3298 87.7738 23.225C87.7738 22.6397 87.5931 22.2122 87.2312 21.9426C86.8762 21.673 86.314 21.5382 85.5446 21.5382C85.3931 21.5382 85.2947 21.5645 85.2485 21.6171C85.2026 21.6631 85.1795 21.7651 85.1795 21.9229V24.8427ZM90.5074 22.347C90.5074 22.1366 90.4941 21.9689 90.4678 21.844C90.4482 21.719 90.3989 21.6204 90.3201 21.5481C90.241 21.4757 90.1293 21.4264 89.9844 21.4001C89.8398 21.3738 89.6491 21.3541 89.4124 21.3409V21.114H92.7564V21.3409C92.5198 21.3475 92.329 21.3672 92.1844 21.4001C92.0396 21.4264 91.9279 21.4757 91.8488 21.5481C91.77 21.6204 91.7175 21.7223 91.6912 21.8538C91.6647 21.9788 91.6517 22.1432 91.6517 22.347V27.3581C91.6517 27.562 91.6647 27.7296 91.6912 27.8612C91.7241 27.9861 91.7798 28.0848 91.8589 28.1571C91.9377 28.2294 92.0494 28.2821 92.1943 28.3149C92.3388 28.3412 92.5261 28.3577 92.7564 28.3642V28.5714H89.4124V28.3642C89.6491 28.3577 89.8398 28.3412 89.9844 28.3149C90.1293 28.2821 90.2378 28.2294 90.31 28.1571C90.3891 28.0848 90.4416 27.9861 90.4678 27.8612C90.4941 27.7362 90.5074 27.5685 90.5074 27.3581V22.347ZM95.273 21.5875C94.9573 21.5875 94.6976 21.6039 94.4938 21.6368C94.2964 21.6697 94.1319 21.7388 94.0006 21.844C93.8756 21.9492 93.7738 22.0971 93.6947 22.2879C93.6222 22.472 93.5533 22.7186 93.4875 23.0277H93.2113L93.2805 21.114H99.6329L99.7022 23.0277H99.426C99.3602 22.7186 99.2878 22.472 99.209 22.2879C99.1365 22.0971 99.0378 21.9492 98.9129 21.844C98.7879 21.7388 98.6237 21.6697 98.4196 21.6368C98.2159 21.6039 97.9527 21.5875 97.6306 21.5875H97.0289V27.3581C97.0289 27.562 97.0419 27.7264 97.0684 27.8513C97.0947 27.9763 97.144 28.0749 97.2162 28.1472C97.2953 28.2196 97.4038 28.2722 97.5417 28.3051C97.6866 28.3314 97.8739 28.3511 98.1039 28.3642V28.5714H94.8292V28.3642C95.0592 28.3511 95.2433 28.3314 95.3816 28.3051C95.5195 28.2722 95.6248 28.2163 95.6973 28.1374C95.7761 28.0519 95.8254 27.9368 95.845 27.7921C95.8713 27.6474 95.8846 27.4567 95.8846 27.22V21.5875H95.273ZM107.92 28.5714H105.05V28.3642C105.148 28.3642 105.231 28.3642 105.296 28.3642C105.362 28.3577 105.415 28.3511 105.454 28.3445C105.5 28.3314 105.54 28.3215 105.573 28.3149C105.606 28.3018 105.638 28.2853 105.671 28.2656C105.724 28.2327 105.763 28.1933 105.79 28.1472C105.822 28.0946 105.839 28.042 105.839 27.9894C105.839 27.8053 105.767 27.5488 105.622 27.22L105.148 26.1448H102.209L101.686 27.4567C101.66 27.5291 101.637 27.6047 101.617 27.6836C101.604 27.756 101.597 27.8283 101.597 27.9006C101.597 28.0519 101.656 28.167 101.775 28.2459C101.893 28.3248 102.09 28.3642 102.367 28.3642V28.5714H100.127V28.3642C100.266 28.3577 100.384 28.3347 100.483 28.2952C100.581 28.2557 100.68 28.1735 100.778 28.0486C100.877 27.9171 100.982 27.7329 101.094 27.4962C101.212 27.2529 101.36 26.9241 101.538 26.5098L103.876 20.9858H104.093L106.904 27.3778C106.996 27.5883 107.075 27.756 107.141 27.8809C107.213 28.0059 107.285 28.1045 107.358 28.1768C107.43 28.2426 107.509 28.2886 107.595 28.3149C107.687 28.3412 107.795 28.3577 107.92 28.3642V28.5714ZM105 25.691L103.698 22.5838L102.396 25.691H105ZM114.787 26.6183L114.234 28.5714H108.188V28.3642C108.392 28.3511 108.556 28.3281 108.681 28.2952C108.812 28.2623 108.911 28.2097 108.977 28.1374C109.049 28.065 109.098 27.9664 109.125 27.8414C109.151 27.7165 109.164 27.5554 109.164 27.3581V22.347C109.164 22.1498 109.151 21.9887 109.125 21.8637C109.105 21.7388 109.059 21.6401 108.987 21.5678C108.914 21.4954 108.812 21.4428 108.681 21.4099C108.556 21.3771 108.392 21.3541 108.188 21.3409V21.114H111.354V21.3409C111.13 21.3541 110.95 21.3771 110.812 21.4099C110.674 21.4363 110.568 21.4889 110.496 21.5678C110.424 21.6401 110.374 21.7388 110.348 21.8637C110.322 21.9887 110.309 22.1498 110.309 22.347V27.6737C110.309 27.7724 110.318 27.8546 110.338 27.9204C110.365 27.9795 110.414 28.0256 110.486 28.0585C110.558 28.0913 110.657 28.1143 110.782 28.1275C110.907 28.1341 111.075 28.1374 111.285 28.1374H112.035C112.515 28.1374 112.913 28.0815 113.228 27.9697C113.551 27.8579 113.814 27.6869 114.018 27.4567C114.096 27.3647 114.172 27.2496 114.244 27.1115C114.323 26.9734 114.409 26.809 114.501 26.6183H114.787ZM122.7 28.5714H122.533L119.702 22.3865V26.9142C119.702 27.2036 119.715 27.4403 119.741 27.6244C119.774 27.802 119.83 27.9434 119.909 28.0486C119.988 28.1538 120.096 28.2294 120.234 28.2755C120.372 28.3215 120.55 28.3511 120.767 28.3642V28.5714H118.123V28.3642C118.354 28.3445 118.538 28.3149 118.676 28.2755C118.821 28.2294 118.929 28.1538 119.001 28.0486C119.08 27.9434 119.133 27.802 119.159 27.6244C119.185 27.4403 119.199 27.2036 119.199 26.9142V22.347C119.199 22.1432 119.185 21.9788 119.159 21.8538C119.139 21.7289 119.09 21.6302 119.011 21.5579C118.939 21.4856 118.833 21.4363 118.696 21.4099C118.557 21.3771 118.373 21.3541 118.143 21.3409V21.114H120.372L122.967 26.8057L125.472 21.114H127.702V21.3409C127.491 21.3541 127.324 21.3771 127.199 21.4099C127.074 21.4428 126.975 21.4954 126.902 21.5678C126.83 21.6401 126.781 21.7388 126.755 21.8637C126.735 21.9887 126.725 22.1498 126.725 22.347V27.3581C126.725 27.5554 126.738 27.7165 126.765 27.8414C126.791 27.9664 126.837 28.065 126.902 28.1374C126.975 28.2097 127.074 28.2623 127.199 28.2952C127.33 28.3281 127.498 28.3511 127.702 28.3642V28.5714H124.545V28.3642C124.769 28.3511 124.946 28.3281 125.078 28.2952C125.216 28.2623 125.321 28.2064 125.393 28.1275C125.466 28.042 125.512 27.9302 125.531 27.7921C125.558 27.6474 125.571 27.4567 125.571 27.22V22.1202L122.7 28.5714ZM136.028 28.5714H133.158V28.3642C133.256 28.3642 133.339 28.3642 133.404 28.3642C133.47 28.3577 133.523 28.3511 133.562 28.3445C133.608 28.3314 133.648 28.3215 133.681 28.3149C133.713 28.3018 133.746 28.2853 133.779 28.2656C133.832 28.2327 133.871 28.1933 133.898 28.1472C133.93 28.0946 133.947 28.042 133.947 27.9894C133.947 27.8053 133.874 27.5488 133.73 27.22L133.256 26.1448H130.317L129.794 27.4567C129.768 27.5291 129.745 27.6047 129.725 27.6836C129.712 27.756 129.705 27.8283 129.705 27.9006C129.705 28.0519 129.765 28.167 129.883 28.2459C130.001 28.3248 130.198 28.3642 130.475 28.3642V28.5714H128.236V28.3642C128.373 28.3577 128.492 28.3347 128.591 28.2952C128.689 28.2557 128.788 28.1735 128.887 28.0486C128.985 27.9171 129.09 27.7329 129.202 27.4962C129.321 27.2529 129.468 26.9241 129.646 26.5098L131.984 20.9858H132.201L135.012 27.3778C135.104 27.5883 135.183 27.756 135.249 27.8809C135.321 28.0059 135.394 28.1045 135.466 28.1768C135.538 28.2426 135.617 28.2886 135.703 28.3149C135.795 28.3412 135.903 28.3577 136.028 28.3642V28.5714ZM133.109 25.691L131.806 22.5838L130.504 25.691H133.109ZM142.855 28.6996L137.874 22.5049V26.9142C137.874 27.2036 137.887 27.4403 137.913 27.6244C137.946 27.802 138.002 27.9434 138.081 28.0486C138.16 28.1538 138.269 28.2294 138.407 28.2755C138.545 28.3215 138.722 28.3511 138.939 28.3642V28.5714H136.296V28.3642C136.526 28.3445 136.71 28.3149 136.848 28.2755C136.993 28.2294 137.101 28.1538 137.174 28.0486C137.253 27.9434 137.305 27.802 137.332 27.6244C137.358 27.4403 137.371 27.2036 137.371 26.9142V21.9623C137.259 21.8308 137.164 21.7256 137.085 21.6467C137.006 21.5612 136.927 21.4987 136.848 21.4593C136.769 21.4132 136.687 21.3836 136.601 21.3705C136.516 21.3508 136.414 21.3409 136.296 21.3409V21.114H138.219L142.55 26.569V22.7712C142.55 22.0873 142.441 21.6664 142.224 21.5086C142.139 21.456 142.043 21.4198 141.938 21.4001C141.84 21.3738 141.685 21.3541 141.474 21.3409V21.114H144.108V21.3409C143.898 21.3541 143.74 21.3771 143.635 21.4099C143.536 21.4428 143.451 21.4856 143.378 21.5382C143.155 21.6829 143.043 22.0939 143.043 22.7712V28.6996H142.855ZM152.307 28.5714H149.436V28.3642C149.535 28.3642 149.617 28.3642 149.683 28.3642C149.748 28.3577 149.801 28.3511 149.84 28.3445C149.887 28.3314 149.926 28.3215 149.959 28.3149C149.992 28.3018 150.025 28.2853 150.057 28.2656C150.11 28.2327 150.15 28.1933 150.176 28.1472C150.209 28.0946 150.225 28.042 150.225 27.9894C150.225 27.8053 150.153 27.5488 150.008 27.22L149.535 26.1448H146.595L146.072 27.4567C146.046 27.5291 146.023 27.6047 146.003 27.6836C145.99 27.756 145.984 27.8283 145.984 27.9006C145.984 28.0519 146.043 28.167 146.161 28.2459C146.28 28.3248 146.477 28.3642 146.753 28.3642V28.5714H144.514V28.3642C144.652 28.3577 144.77 28.3347 144.869 28.2952C144.968 28.2557 145.066 28.1735 145.165 28.0486C145.264 27.9171 145.369 27.7329 145.481 27.4962C145.599 27.2529 145.747 26.9241 145.924 26.5098L148.262 20.9858H148.479L151.291 27.3778C151.383 27.5883 151.461 27.756 151.527 27.8809C151.6 28.0059 151.672 28.1045 151.744 28.1768C151.817 28.2426 151.896 28.2886 151.981 28.3149C152.073 28.3412 152.182 28.3577 152.307 28.3642V28.5714ZM149.387 25.691L148.085 22.5838L146.783 25.691H149.387ZM160.416 24.7934C160.252 24.8066 160.117 24.8296 160.012 24.8624C159.913 24.8887 159.834 24.9348 159.775 25.0006C159.722 25.0597 159.686 25.1452 159.667 25.257C159.647 25.3622 159.637 25.497 159.637 25.6614V27.9401C159.525 28.0387 159.361 28.1374 159.144 28.236C158.927 28.3281 158.683 28.4136 158.414 28.4925C158.151 28.5648 157.878 28.6207 157.595 28.6602C157.319 28.7062 157.059 28.7292 156.816 28.7292C156.191 28.7292 155.612 28.6273 155.08 28.4234C154.554 28.2196 154.103 27.9204 153.728 27.5258C153.413 27.1904 153.179 26.809 153.028 26.3815C152.877 25.9541 152.801 25.4675 152.801 24.9216C152.801 24.3429 152.896 23.8135 153.087 23.3335C153.278 22.8468 153.541 22.4292 153.876 22.0807C154.218 21.7322 154.623 21.4593 155.089 21.262C155.563 21.0647 156.083 20.9661 156.648 20.9661C157.161 20.9661 157.674 21.0515 158.187 21.2225C158.404 21.3014 158.572 21.3409 158.69 21.3409C158.808 21.3409 158.913 21.3047 159.006 21.2324C159.098 21.1601 159.16 21.0713 159.193 20.9661H159.43L159.528 23.3434H159.272C159.2 23.1724 159.134 23.0244 159.075 22.8995C159.016 22.7679 158.953 22.6528 158.887 22.5542C158.828 22.449 158.766 22.3569 158.7 22.278C158.634 22.1925 158.558 22.1103 158.473 22.0314C158.026 21.6171 157.483 21.4099 156.845 21.4099C156.438 21.4099 156.059 21.4889 155.711 21.6467C155.369 21.8045 155.076 22.0314 154.833 22.3273C154.603 22.6101 154.419 22.9849 154.281 23.4518C154.143 23.9122 154.074 24.3955 154.074 24.9019C154.074 25.428 154.143 25.9015 154.281 26.3223C154.419 26.7367 154.616 27.0885 154.872 27.3778C155.129 27.6672 155.438 27.8908 155.8 28.0486C156.168 28.2064 156.582 28.2853 157.043 28.2853C157.246 28.2853 157.437 28.2689 157.615 28.236C157.799 28.1966 157.96 28.1472 158.098 28.0881C158.236 28.0289 158.345 27.9598 158.424 27.8809C158.502 27.7954 158.542 27.7066 158.542 27.6146V25.7897C158.542 25.5858 158.532 25.4214 158.513 25.2965C158.493 25.1715 158.447 25.0762 158.374 25.0104C158.309 24.9381 158.21 24.8887 158.079 24.8624C157.947 24.8296 157.769 24.8066 157.546 24.7934V24.5862H160.416V24.7934ZM166.829 28.5714H160.753V28.3642C160.957 28.3511 161.121 28.3281 161.246 28.2952C161.378 28.2623 161.476 28.2097 161.542 28.1374C161.614 28.065 161.664 27.9664 161.69 27.8414C161.716 27.7165 161.729 27.5554 161.729 27.3581V22.347C161.729 22.1498 161.716 21.9887 161.69 21.8637C161.67 21.7388 161.624 21.6401 161.552 21.5678C161.479 21.4954 161.378 21.4428 161.246 21.4099C161.121 21.3771 160.957 21.3541 160.753 21.3409V21.114H166.73L166.75 22.7318H166.484C166.431 22.4753 166.372 22.2714 166.307 22.1202C166.241 21.9623 166.145 21.8407 166.02 21.7552C165.902 21.6697 165.741 21.6138 165.537 21.5875C165.34 21.5612 165.083 21.5481 164.768 21.5481H163.249C163.097 21.5481 162.995 21.5711 162.943 21.6171C162.897 21.6631 162.874 21.7683 162.874 21.9328V24.4284H164.6C164.83 24.4284 165.017 24.4153 165.162 24.389C165.307 24.3627 165.422 24.3133 165.507 24.241C165.599 24.1621 165.668 24.0536 165.715 23.9155C165.76 23.7774 165.803 23.5933 165.843 23.3631H166.109V25.9771H165.843C165.803 25.7403 165.76 25.5529 165.715 25.4148C165.668 25.2702 165.603 25.1616 165.517 25.0893C165.432 25.0104 165.317 24.9578 165.172 24.9315C165.027 24.9052 164.837 24.892 164.6 24.892H162.874V27.6737C162.874 27.7855 162.88 27.8677 162.893 27.9204C162.907 27.973 162.93 28.0124 162.963 28.0387C163.015 28.0716 163.14 28.1012 163.337 28.1275C163.541 28.1472 163.781 28.1571 164.057 28.1571H164.373C164.774 28.1571 165.109 28.1374 165.379 28.0979C165.655 28.0585 165.889 27.9828 166.079 27.871C166.277 27.7593 166.448 27.608 166.593 27.4173C166.737 27.2266 166.879 26.9767 167.016 26.6676H167.342L166.829 28.5714ZM172.256 28.5714H172.088L169.257 22.3865V26.9142C169.257 27.2036 169.27 27.4403 169.296 27.6244C169.329 27.802 169.385 27.9434 169.464 28.0486C169.543 28.1538 169.652 28.2294 169.79 28.2755C169.928 28.3215 170.105 28.3511 170.322 28.3642V28.5714H167.679V28.3642C167.909 28.3445 168.093 28.3149 168.231 28.2755C168.376 28.2294 168.484 28.1538 168.557 28.0486C168.636 27.9434 168.688 27.802 168.715 27.6244C168.741 27.4403 168.754 27.2036 168.754 26.9142V22.347C168.754 22.1432 168.741 21.9788 168.715 21.8538C168.695 21.7289 168.645 21.6302 168.567 21.5579C168.494 21.4856 168.389 21.4363 168.251 21.4099C168.113 21.3771 167.929 21.3541 167.698 21.3409V21.114H169.928L172.522 26.8057L175.028 21.114H177.257V21.3409C177.046 21.3541 176.879 21.3771 176.754 21.4099C176.629 21.4428 176.53 21.4954 176.458 21.5678C176.386 21.6401 176.336 21.7388 176.31 21.8637C176.29 21.9887 176.28 22.1498 176.28 22.347V27.3581C176.28 27.5554 176.294 27.7165 176.32 27.8414C176.346 27.9664 176.392 28.065 176.458 28.1374C176.53 28.2097 176.629 28.2623 176.754 28.2952C176.885 28.3281 177.053 28.3511 177.257 28.3642V28.5714H174.1V28.3642C174.324 28.3511 174.502 28.3281 174.633 28.2952C174.771 28.2623 174.876 28.2064 174.949 28.1275C175.021 28.042 175.067 27.9302 175.087 27.7921C175.113 27.6474 175.126 27.4567 175.126 27.22V22.1202L172.256 28.5714ZM183.828 28.5714H177.751V28.3642C177.955 28.3511 178.12 28.3281 178.244 28.2952C178.376 28.2623 178.475 28.2097 178.541 28.1374C178.613 28.065 178.662 27.9664 178.688 27.8414C178.715 27.7165 178.728 27.5554 178.728 27.3581V22.347C178.728 22.1498 178.715 21.9887 178.688 21.8637C178.669 21.7388 178.623 21.6401 178.55 21.5678C178.478 21.4954 178.376 21.4428 178.244 21.4099C178.12 21.3771 177.955 21.3541 177.751 21.3409V21.114H183.729L183.749 22.7318H183.483C183.43 22.4753 183.371 22.2714 183.305 22.1202C183.239 21.9623 183.144 21.8407 183.019 21.7552C182.9 21.6697 182.739 21.6138 182.535 21.5875C182.338 21.5612 182.082 21.5481 181.766 21.5481H180.247C180.096 21.5481 179.994 21.5711 179.941 21.6171C179.895 21.6631 179.872 21.7683 179.872 21.9328V24.4284H181.598C181.829 24.4284 182.016 24.4153 182.161 24.389C182.305 24.3627 182.421 24.3133 182.506 24.241C182.598 24.1621 182.667 24.0536 182.713 23.9155C182.759 23.7774 182.802 23.5933 182.841 23.3631H183.108V25.9771H182.841C182.802 25.7403 182.759 25.5529 182.713 25.4148C182.667 25.2702 182.601 25.1616 182.516 25.0893C182.43 25.0104 182.315 24.9578 182.171 24.9315C182.026 24.9052 181.835 24.892 181.598 24.892H179.872V27.6737C179.872 27.7855 179.879 27.8677 179.892 27.9204C179.905 27.973 179.928 28.0124 179.961 28.0387C180.014 28.0716 180.139 28.1012 180.336 28.1275C180.54 28.1472 180.78 28.1571 181.056 28.1571H181.371C181.773 28.1571 182.108 28.1374 182.378 28.0979C182.654 28.0585 182.887 27.9828 183.078 27.871C183.275 27.7593 183.446 27.608 183.591 27.4173C183.736 27.2266 183.877 26.9767 184.015 26.6676H184.341L183.828 28.5714ZM191.237 28.6996L186.255 22.5049V26.9142C186.255 27.2036 186.269 27.4403 186.295 27.6244C186.328 27.802 186.384 27.9434 186.463 28.0486C186.541 28.1538 186.65 28.2294 186.788 28.2755C186.926 28.3215 187.104 28.3511 187.321 28.3642V28.5714H184.677V28.3642C184.907 28.3445 185.092 28.3149 185.229 28.2755C185.374 28.2294 185.483 28.1538 185.555 28.0486C185.634 27.9434 185.687 27.802 185.713 27.6244C185.739 27.4403 185.752 27.2036 185.752 26.9142V21.9623C185.641 21.8308 185.545 21.7256 185.466 21.6467C185.387 21.5612 185.309 21.4987 185.229 21.4593C185.151 21.4132 185.068 21.3836 184.983 21.3705C184.898 21.3508 184.796 21.3409 184.677 21.3409V21.114H186.601L190.931 26.569V22.7712C190.931 22.0873 190.823 21.6664 190.606 21.5086C190.52 21.456 190.425 21.4198 190.319 21.4001C190.221 21.3738 190.066 21.3541 189.856 21.3409V21.114H192.49V21.3409C192.279 21.3541 192.122 21.3771 192.016 21.4099C191.917 21.4428 191.832 21.4856 191.76 21.5382C191.536 21.6829 191.424 22.0939 191.424 22.7712V28.6996H191.237ZM194.967 21.5875C194.651 21.5875 194.391 21.6039 194.188 21.6368C193.99 21.6697 193.826 21.7388 193.694 21.844C193.569 21.9492 193.468 22.0971 193.388 22.2879C193.316 22.472 193.247 22.7186 193.181 23.0277H192.905L192.974 21.114H199.327L199.396 23.0277H199.12C199.054 22.7186 198.982 22.472 198.903 22.2879C198.83 22.0971 198.732 21.9492 198.607 21.844C198.482 21.7388 198.317 21.6697 198.113 21.6368C197.91 21.6039 197.646 21.5875 197.324 21.5875H196.723V27.3581C196.723 27.562 196.736 27.7264 196.762 27.8513C196.788 27.9763 196.838 28.0749 196.91 28.1472C196.989 28.2196 197.098 28.2722 197.236 28.3051C197.38 28.3314 197.568 28.3511 197.798 28.3642V28.5714H194.523V28.3642C194.753 28.3511 194.937 28.3314 195.075 28.3051C195.213 28.2722 195.319 28.2163 195.391 28.1374C195.47 28.0519 195.519 27.9368 195.539 27.7921C195.565 27.6474 195.578 27.4567 195.578 27.22V21.5875H194.967Z" fill="black"/>
<path d="M63.9252 3.896H0.433105V34.7762H63.9252V3.896Z" fill="black" stroke="#616161" stroke-width="3"/>
<path d="M7.44238 29.7259V29.035C8.6268 29.035 9.31771 28.8157 9.51511 28.377V11.8281C9.31771 11.3894 8.6268 11.1701 7.44238 11.1701V10.4792H14.5489V11.1701C13.3645 11.1701 12.6736 11.3894 12.4761 11.8281V28.377C12.6736 28.8157 13.3645 29.035 14.5489 29.035V29.7259H7.44238ZM18.9246 29.7259V29.035C19.4291 29.035 19.8349 29.0021 20.1419 28.9363L12.6407 19.3952L20.7013 11.4004C20.3942 11.2468 19.8349 11.1701 19.0233 11.1701V10.4792H24.1887V11.1701C23.2675 11.1701 22.5875 11.4223 22.1489 11.9268L15.5359 18.474L23.2675 28.5086C23.6184 28.8595 24.3093 29.035 25.3402 29.035V29.7259H18.9246ZM32.3515 19.7057C31.9697 19.7057 31.7192 19.8429 31.6 20.1172C31.4805 20.3797 31.421 20.8032 31.421 21.3877C31.421 21.8648 31.5642 22.5149 31.8505 23.338C32.757 22.6939 33.2103 22.0258 33.2103 21.334C33.2103 20.8926 33.1327 20.5109 32.9777 20.1888C32.8346 19.8667 32.6256 19.7057 32.3515 19.7057ZM37.3795 23.5527V23.9285C36.6995 23.9285 36.3238 24.0418 36.2522 24.2685C35.7033 26.022 35.1307 27.3043 34.5344 28.1155C35.0473 28.6642 35.4707 28.9386 35.8049 28.9386C36.258 28.9386 36.5682 28.8968 36.7353 28.8134C36.9142 28.7299 37.099 28.5509 37.29 28.2766L37.5047 28.4555C37.3376 28.9089 37.1168 29.2667 36.8427 29.5291C36.5682 29.7796 36.1746 29.9048 35.6617 29.9048C34.9818 29.9048 34.3076 29.6304 33.6398 29.0817C32.9598 29.6304 32.1725 29.9048 31.2779 29.9048C28.8323 29.9048 27.6097 29.0878 27.6097 27.4535C27.6097 27.0837 27.6872 26.7437 27.8423 26.4336C27.9973 26.1115 28.2419 25.8073 28.5759 25.521C28.9217 25.2347 29.2202 25.0081 29.4707 24.8411C29.733 24.6621 30.1027 24.4295 30.58 24.1432C30.1624 22.9861 29.9538 22.0199 29.9538 21.2445C29.9538 19.8011 30.6337 19.0794 31.9936 19.0794C32.578 19.0794 33.0493 19.2882 33.4072 19.7057C33.7769 20.1113 33.9619 20.5825 33.9619 21.1193C33.9619 21.7038 33.7948 22.2167 33.4609 22.6581C33.1388 23.0994 32.6854 23.5468 32.101 24.0001C32.6614 25.3838 33.3474 26.6006 34.1587 27.6503C34.576 26.9823 35.0355 25.8371 35.5365 24.2148C35.417 24.0239 35.0533 23.9285 34.445 23.9285V23.5527H37.3795ZM33.2282 28.706C32.3336 27.8113 31.5521 26.5469 30.8842 24.9126C29.894 25.6641 29.3991 26.3739 29.3991 27.0419C29.3991 28.4495 30.2458 29.1533 31.9399 29.1533C32.4052 29.1533 32.8346 29.0041 33.2282 28.706ZM50.6323 11.2688C48.746 11.2688 47.1777 12.0474 45.9275 13.6047C44.6773 15.162 44.0522 17.1799 44.0522 19.6584C44.0522 22.5536 44.7102 24.8237 46.0262 26.4688C47.3422 28.1138 48.9215 28.9363 50.7639 28.9363C51.8606 28.9363 52.9463 28.5634 54.021 27.8177C55.0958 27.05 55.7867 26.2385 56.0938 25.383L56.8834 25.7779C56.3789 26.9842 55.5783 28.0041 54.4816 28.8376C53.4069 29.6491 51.9483 30.0549 50.1059 30.0549C47.1887 30.0549 44.8747 29.1118 43.1639 27.2255C41.475 25.3172 40.6306 23.0361 40.6306 20.3822C40.6306 17.3115 41.6066 14.8439 43.5587 12.9796C45.5327 11.0933 47.8796 10.1501 50.5994 10.1501C51.2355 10.1501 51.9702 10.3146 52.8037 10.6437C53.6372 10.9727 54.1197 11.1372 54.2513 11.1372C54.5145 11.1372 54.6461 10.9178 54.6461 10.4792H55.4028L55.7318 14.6575H55.008C54.8545 13.6705 54.4158 12.8589 53.692 12.2229C52.9902 11.5868 51.9702 11.2688 50.6323 11.2688Z" fill="white"/>
<path d="M200 34.3435H67.8213V35.2093H200V34.3435Z" fill="black"/>
</g>
<defs>
<clipPath id="clip0_63_1799">
<rect width="200" height="37.8066" fill="white"/>
</clipPath>
</defs>
</svg>
